<svg xmlns="http://www.w3.org/2000/svg" xmlns:xlink="http://www.w3.org/1999/xlink" viewBox="0 0 500 500" width="500" height="500" preserveAspectRatio="xMidYMid meet" style="width: 100%; height: 100%; transform: translate3d(0px, 0px, 0px); content-visibility: visible;"><defs><clipPath id="__lottie_element_94"><rect width="500" height="500" x="0" y="0"></rect></clipPath><linearGradient id="__lottie_element_98" spreadMethod="pad" gradientUnits="userSpaceOnUse" x1="-0.16200000047683716" y1="-14.654999732971191" x2="0.08799999952316284" y2="14.065999984741211"><stop offset="0%" stop-color="rgb(255,205,26)"></stop><stop offset="50%" stop-color="rgb(255,176,47)"></stop><stop offset="100%" stop-color="rgb(255,148,68)"></stop></linearGradient><linearGradient id="__lottie_element_102" spreadMethod="pad" gradientUnits="userSpaceOnUse" x1="46.88399887084961" y1="-164.85699462890625" x2="46.88399887084961" y2="-193.53399658203125"><stop offset="0%" stop-color="rgb(255,255,255)" stop-opacity="0.30000001192092896"></stop><stop offset="50%" stop-color="rgb(255,255,255)" stop-opacity="0.2150000035762787"></stop><stop offset="100%" stop-color="rgb(255,255,255)" stop-opacity="0.12999999523162842"></stop></linearGradient><linearGradient id="__lottie_element_103" spreadMethod="pad" gradientUnits="userSpaceOnUse" x1="47.290000915527344" y1="-88.01200103759766" x2="47.290000915527344" y2="-105.93399810791016"><stop offset="0%" stop-color="rgb(255,255,255)" stop-opacity="0.30000001192092896"></stop><stop offset="50%" stop-color="rgb(255,255,255)" stop-opacity="0.2150000035762787"></stop><stop offset="100%" stop-color="rgb(255,255,255)" stop-opacity="0.12999999523162842"></stop></linearGradient><linearGradient id="__lottie_element_104" spreadMethod="pad" gradientUnits="userSpaceOnUse" x1="46.83399963378906" y1="496.2330017089844" x2="46.83399963378906" y2="483.68701171875"><stop offset="0%" stop-color="rgb(255,255,255)" stop-opacity="0.30000001192092896"></stop><stop offset="50%" stop-color="rgb(255,255,255)" stop-opacity="0.2150000035762787"></stop><stop offset="100%" stop-color="rgb(255,255,255)" stop-opacity="0.12999999523162842"></stop></linearGradient><linearGradient id="__lottie_element_105" spreadMethod="pad" gradientUnits="userSpaceOnUse" x1="46.70500183105469" y1="463.7909851074219" x2="46.70500183105469" y2="438.6990051269531"><stop offset="0%" stop-color="rgb(255,255,255)" stop-opacity="0.30000001192092896"></stop><stop offset="50%" stop-color="rgb(255,255,255)" stop-opacity="0.2150000035762787"></stop><stop offset="100%" stop-color="rgb(255,255,255)" stop-opacity="0.12999999523162842"></stop></linearGradient><linearGradient id="__lottie_element_109" spreadMethod="pad" gradientUnits="userSpaceOnUse" x1="36.3120002746582" y1="-73.2490005493164" x2="40.8120002746582" y2="76.0270004272461"><stop offset="0%" stop-color="rgb(255,205,26)"></stop><stop offset="50%" stop-color="rgb(255,176,47)"></stop><stop offset="100%" stop-color="rgb(255,148,68)"></stop></linearGradient><linearGradient id="__lottie_element_113" spreadMethod="pad" gradientUnits="userSpaceOnUse" x1="5.0879998207092285" y1="-64.05999755859375" x2="3.0880000591278076" y2="98.4229965209961"><stop offset="0%" stop-color="rgb(255,205,26)"></stop><stop offset="50%" stop-color="rgb(255,176,47)"></stop><stop offset="100%" stop-color="rgb(255,148,68)"></stop></linearGradient><linearGradient id="__lottie_element_117" spreadMethod="pad" gradientUnits="userSpaceOnUse" x1="-30.614999771118164" y1="-2.4049999713897705" x2="-30.864999771118164" y2="3.312999963760376"><stop offset="0%" stop-color="rgb(255,205,26)"></stop><stop offset="50%" stop-color="rgb(255,176,47)"></stop><stop offset="100%" stop-color="rgb(255,148,68)"></stop></linearGradient><linearGradient id="__lottie_element_124" spreadMethod="pad" gradientUnits="userSpaceOnUse" x1="47.20800018310547" y1="93.61299896240234" x2="47.20800018310547" y2="-132.3179931640625"><stop offset="0%" stop-color="rgb(255,255,255)" stop-opacity="0.30000001192092896"></stop><stop offset="50%" stop-color="rgb(255,255,255)" stop-opacity="0.2150000035762787"></stop><stop offset="100%" stop-color="rgb(255,255,255)" stop-opacity="0.12999999523162842"></stop></linearGradient><linearGradient id="__lottie_element_128" spreadMethod="pad" gradientUnits="userSpaceOnUse" x1="-19.13599967956543" y1="-14.07699966430664" x2="-19.13599967956543" y2="13.61299991607666"><stop offset="0%" stop-color="rgb(255,205,26)"></stop><stop offset="50%" stop-color="rgb(251,156,13)"></stop><stop offset="100%" stop-color="rgb(247,106,0)"></stop></linearGradient><linearGradient id="__lottie_element_132" spreadMethod="pad" gradientUnits="userSpaceOnUse" x1="-19.13599967956543" y1="-14.07699966430664" x2="-19.13599967956543" y2="13.61299991607666"><stop offset="0%" stop-color="rgb(255,205,26)"></stop><stop offset="50%" stop-color="rgb(251,156,13)"></stop><stop offset="100%" stop-color="rgb(247,106,0)"></stop></linearGradient><linearGradient id="__lottie_element_136" spreadMethod="pad" gradientUnits="userSpaceOnUse" x1="-19.13599967956543" y1="-14.07699966430664" x2="-19.13599967956543" y2="13.61299991607666"><stop offset="0%" stop-color="rgb(255,205,26)"></stop><stop offset="50%" stop-color="rgb(251,156,13)"></stop><stop offset="100%" stop-color="rgb(247,106,0)"></stop></linearGradient><linearGradient id="__lottie_element_140" spreadMethod="pad" gradientUnits="userSpaceOnUse" x1="-19.13599967956543" y1="-14.07699966430664" x2="-19.13599967956543" y2="13.61299991607666"><stop offset="0%" stop-color="rgb(255,205,26)"></stop><stop offset="50%" stop-color="rgb(251,156,13)"></stop><stop offset="100%" stop-color="rgb(247,106,0)"></stop></linearGradient><linearGradient id="__lottie_element_144" spreadMethod="pad" gradientUnits="userSpaceOnUse" x1="-19.13599967956543" y1="-14.07699966430664" x2="-19.13599967956543" y2="13.61299991607666"><stop offset="0%" stop-color="rgb(255,205,26)"></stop><stop offset="50%" stop-color="rgb(251,156,13)"></stop><stop offset="100%" stop-color="rgb(247,106,0)"></stop></linearGradient><linearGradient id="__lottie_element_148" spreadMethod="pad" gradientUnits="userSpaceOnUse" x1="-19.13599967956543" y1="-14.07699966430664" x2="-19.13599967956543" y2="13.61299991607666"><stop offset="0%" stop-color="rgb(255,205,26)"></stop><stop offset="50%" stop-color="rgb(251,156,13)"></stop><stop offset="100%" stop-color="rgb(247,106,0)"></stop></linearGradient><linearGradient id="__lottie_element_152" spreadMethod="pad" gradientUnits="userSpaceOnUse" x1="16.520999908447266" y1="-21.07699966430664" x2="16.520999908447266" y2="15.61299991607666"><stop offset="0%" stop-color="rgb(255,205,26)"></stop><stop offset="50%" stop-color="rgb(251,156,13)"></stop><stop offset="100%" stop-color="rgb(247,106,0)"></stop></linearGradient><linearGradient id="__lottie_element_156" spreadMethod="pad" gradientUnits="userSpaceOnUse" x1="16.520999908447266" y1="-21.07699966430664" x2="16.520999908447266" y2="15.61299991607666"><stop offset="0%" stop-color="rgb(255,205,26)"></stop><stop offset="50%" stop-color="rgb(251,156,13)"></stop><stop offset="100%" stop-color="rgb(247,106,0)"></stop></linearGradient><linearGradient id="__lottie_element_160" spreadMethod="pad" gradientUnits="userSpaceOnUse" x1="16.520999908447266" y1="-21.07699966430664" x2="16.520999908447266" y2="15.61299991607666"><stop offset="0%" stop-color="rgb(255,205,26)"></stop><stop offset="50%" stop-color="rgb(251,156,13)"></stop><stop offset="100%" stop-color="rgb(247,106,0)"></stop></linearGradient><linearGradient id="__lottie_element_164" spreadMethod="pad" gradientUnits="userSpaceOnUse" x1="16.520999908447266" y1="-21.07699966430664" x2="16.520999908447266" y2="15.61299991607666"><stop offset="0%" stop-color="rgb(245,245,245)" stop-opacity="0.30000001192092896"></stop><stop offset="50%" stop-color="rgb(245,245,245)" stop-opacity="0.2150000035762787"></stop><stop offset="100%" stop-color="rgb(245,245,245)" stop-opacity="0.12999999523162842"></stop></linearGradient><linearGradient id="__lottie_element_168" spreadMethod="pad" gradientUnits="userSpaceOnUse" x1="16.520999908447266" y1="-21.07699966430664" x2="16.520999908447266" y2="15.61299991607666"><stop offset="0%" stop-color="rgb(255,205,26)"></stop><stop offset="50%" stop-color="rgb(251,156,13)"></stop><stop offset="100%" stop-color="rgb(247,106,0)"></stop></linearGradient><linearGradient id="__lottie_element_172" spreadMethod="pad" gradientUnits="userSpaceOnUse" x1="16.520999908447266" y1="-21.07699966430664" x2="16.520999908447266" y2="15.61299991607666"><stop offset="0%" stop-color="rgb(255,205,26)"></stop><stop offset="50%" stop-color="rgb(251,156,13)"></stop><stop offset="100%" stop-color="rgb(247,106,0)"></stop></linearGradient></defs><g clip-path="url(#__lottie_element_94)"><g transform="matrix(1,0,0,1,354.47900390625,315.9230041503906)" opacity="1" style="display: block;"><g opacity="1" transform="matrix(1,0,0,1,0,0)"><path fill="url(#__lottie_element_172)" fill-opacity="1" d=" M-31.86199951171875,-9.654999732971191 C-31.86199951171875,-9.654999732971191 31.86199951171875,-9.654999732971191 31.86199951171875,-9.654999732971191 C31.86199951171875,-9.654999732971191 31.86199951171875,9.654999732971191 31.86199951171875,9.654999732971191 C31.86199951171875,9.654999732971191 -31.86199951171875,9.654999732971191 -31.86199951171875,9.654999732971191 C-31.86199951171875,9.654999732971191 -31.86199951171875,-9.654999732971191 -31.86199951171875,-9.654999732971191z"></path></g></g><g transform="matrix(1,0,0,1,354.47900390625,267.9230041503906)" opacity="1" style="display: block;"><g opacity="1" transform="matrix(1,0,0,1,0,0)"><path fill="url(#__lottie_element_168)" fill-opacity="1" d=" M-31.86199951171875,-9.654999732971191 C-31.86199951171875,-9.654999732971191 31.86199951171875,-9.654999732971191 31.86199951171875,-9.654999732971191 C31.86199951171875,-9.654999732971191 31.86199951171875,9.654999732971191 31.86199951171875,9.654999732971191 C31.86199951171875,9.654999732971191 -31.86199951171875,9.654999732971191 -31.86199951171875,9.654999732971191 C-31.86199951171875,9.654999732971191 -31.86199951171875,-9.654999732971191 -31.86199951171875,-9.654999732971191z"></path></g></g><g transform="matrix(1,0,0,1,354.47900390625,219.0229949951172)" opacity="1" style="display: block;"><g opacity="1" transform="matrix(1,0,0,1,0,0)"><path fill="url(#__lottie_element_164)" fill-opacity="1" d=" M-31.86199951171875,-9.654999732971191 C-31.86199951171875,-9.654999732971191 31.86199951171875,-9.654999732971191 31.86199951171875,-9.654999732971191 C31.86199951171875,-9.654999732971191 31.86199951171875,9.654999732971191 31.86199951171875,9.654999732971191 C31.86199951171875,9.654999732971191 -31.86199951171875,9.654999732971191 -31.86199951171875,9.654999732971191 C-31.86199951171875,9.654999732971191 -31.86199951171875,-9.654999732971191 -31.86199951171875,-9.654999732971191z"></path></g></g><g transform="matrix(0,1,-1,0,281.97900390625,148.92300415039062)" opacity="1" style="display: block;"><g opacity="1" transform="matrix(1,0,0,1,0,0)"><path fill="url(#__lottie_element_160)" fill-opacity="1" d=" M-31.86199951171875,-9.654999732971191 C-31.86199951171875,-9.654999732971191 31.86199951171875,-9.654999732971191 31.86199951171875,-9.654999732971191 C31.86199951171875,-9.654999732971191 31.86199951171875,9.654999732971191 31.86199951171875,9.654999732971191 C31.86199951171875,9.654999732971191 -31.86199951171875,9.654999732971191 -31.86199951171875,9.654999732971191 C-31.86199951171875,9.654999732971191 -31.86199951171875,-9.654999732971191 -31.86199951171875,-9.654999732971191z"></path></g></g><g transform="matrix(0,1,-1,0,233.97900390625,148.92300415039062)" opacity="1" style="display: block;"><g opacity="1" transform="matrix(1,0,0,1,0,0)"><path fill="url(#__lottie_element_156)" fill-opacity="1" d=" M-31.86199951171875,-9.654999732971191 C-31.86199951171875,-9.654999732971191 31.86199951171875,-9.654999732971191 31.86199951171875,-9.654999732971191 C31.86199951171875,-9.654999732971191 31.86199951171875,9.654999732971191 31.86199951171875,9.654999732971191 C31.86199951171875,9.654999732971191 -31.86199951171875,9.654999732971191 -31.86199951171875,9.654999732971191 C-31.86199951171875,9.654999732971191 -31.86199951171875,-9.654999732971191 -31.86199951171875,-9.654999732971191z"></path></g></g><g transform="matrix(0,1,-1,0,185.97900390625,148.92300415039062)" opacity="1" style="display: block;"><g opacity="1" transform="matrix(1,0,0,1,0,0)"><path fill="url(#__lottie_element_152)" fill-opacity="1" d=" M-31.86199951171875,-9.654999732971191 C-31.86199951171875,-9.654999732971191 31.86199951171875,-9.654999732971191 31.86199951171875,-9.654999732971191 C31.86199951171875,-9.654999732971191 31.86199951171875,9.654999732971191 31.86199951171875,9.654999732971191 C31.86199951171875,9.654999732971191 -31.86199951171875,9.654999732971191 -31.86199951171875,9.654999732971191 C-31.86199951171875,9.654999732971191 -31.86199951171875,-9.654999732971191 -31.86199951171875,-9.654999732971191z"></path></g></g><g transform="matrix(1,0,0,1,112.13600158691406,315.9230041503906)" opacity="1" style="display: block;"><g opacity="1" transform="matrix(1,0,0,1,0,0)"><path fill="url(#__lottie_element_148)" fill-opacity="1" d=" M-32.827999114990234,-9.654999732971191 C-32.827999114990234,-9.654999732971191 32.827999114990234,-9.654999732971191 32.827999114990234,-9.654999732971191 C32.827999114990234,-9.654999732971191 32.827999114990234,9.654999732971191 32.827999114990234,9.654999732971191 C32.827999114990234,9.654999732971191 -32.827999114990234,9.654999732971191 -32.827999114990234,9.654999732971191 C-32.827999114990234,9.654999732971191 -32.827999114990234,-9.654999732971191 -32.827999114990234,-9.654999732971191z"></path></g></g><g transform="matrix(1,0,0,1,112.13600158691406,267.7229919433594)" opacity="1" style="display: block;"><g opacity="1" transform="matrix(1,0,0,1,0,0)"><path fill="url(#__lottie_element_144)" fill-opacity="1" d=" M-32.827999114990234,-9.654999732971191 C-32.827999114990234,-9.654999732971191 32.827999114990234,-9.654999732971191 32.827999114990234,-9.654999732971191 C32.827999114990234,-9.654999732971191 32.827999114990234,9.654999732971191 32.827999114990234,9.654999732971191 C32.827999114990234,9.654999732971191 -32.827999114990234,9.654999732971191 -32.827999114990234,9.654999732971191 C-32.827999114990234,9.654999732971191 -32.827999114990234,-9.654999732971191 -32.827999114990234,-9.654999732971191z"></path></g></g><g transform="matrix(1,0,0,1,112.13600158691406,219.1230010986328)" opacity="1" style="display: block;"><g opacity="1" transform="matrix(1,0,0,1,0,0)"><path fill="url(#__lottie_element_140)" fill-opacity="1" d=" M-32.827999114990234,-9.654999732971191 C-32.827999114990234,-9.654999732971191 32.827999114990234,-9.654999732971191 32.827999114990234,-9.654999732971191 C32.827999114990234,-9.654999732971191 32.827999114990234,9.654999732971191 32.827999114990234,9.654999732971191 C32.827999114990234,9.654999732971191 -32.827999114990234,9.654999732971191 -32.827999114990234,9.654999732971191 C-32.827999114990234,9.654999732971191 -32.827999114990234,-9.654999732971191 -32.827999114990234,-9.654999732971191z"></path></g></g><g transform="matrix(0,-1,1,0,185.23599243164062,384.12298583984375)" opacity="1" style="display: block;"><g opacity="1" transform="matrix(1,0,0,1,0,0)"><path fill="url(#__lottie_element_136)" fill-opacity="1" d=" M-32.827999114990234,-9.654999732971191 C-32.827999114990234,-9.654999732971191 32.827999114990234,-9.654999732971191 32.827999114990234,-9.654999732971191 C32.827999114990234,-9.654999732971191 32.827999114990234,9.654999732971191 32.827999114990234,9.654999732971191 C32.827999114990234,9.654999732971191 -32.827999114990234,9.654999732971191 -32.827999114990234,9.654999732971191 C-32.827999114990234,9.654999732971191 -32.827999114990234,-9.654999732971191 -32.827999114990234,-9.654999732971191z"></path></g></g><g transform="matrix(0,-1,1,0,234.13600158691406,384.12298583984375)" opacity="1" style="display: block;"><g opacity="1" transform="matrix(1,0,0,1,0,0)"><path fill="url(#__lottie_element_132)" fill-opacity="1" d=" M-32.827999114990234,-9.654999732971191 C-32.827999114990234,-9.654999732971191 32.827999114990234,-9.654999732971191 32.827999114990234,-9.654999732971191 C32.827999114990234,-9.654999732971191 32.827999114990234,9.654999732971191 32.827999114990234,9.654999732971191 C32.827999114990234,9.654999732971191 -32.827999114990234,9.654999732971191 -32.827999114990234,9.654999732971191 C-32.827999114990234,9.654999732971191 -32.827999114990234,-9.654999732971191 -32.827999114990234,-9.654999732971191z"></path></g></g><g transform="matrix(0,-1,1,0,282.135986328125,384.12298583984375)" opacity="1" style="display: block;"><g opacity="1" transform="matrix(1,0,0,1,0,0)"><path fill="url(#__lottie_element_128)" fill-opacity="1" d=" M-32.827999114990234,-9.654999732971191 C-32.827999114990234,-9.654999732971191 32.827999114990234,-9.654999732971191 32.827999114990234,-9.654999732971191 C32.827999114990234,-9.654999732971191 32.827999114990234,9.654999732971191 32.827999114990234,9.654999732971191 C32.827999114990234,9.654999732971191 -32.827999114990234,9.654999732971191 -32.827999114990234,9.654999732971191 C-32.827999114990234,9.654999732971191 -32.827999114990234,-9.654999732971191 -32.827999114990234,-9.654999732971191z"></path></g></g><g transform="matrix(0.9772917032241821,0,0,0.9772917032241821,5.30902099609375,6.0997314453125)" opacity="1" style="display: block;"><g opacity="1" transform="matrix(1,0,0,1,233.79200744628906,268.6130065917969)"><path fill="rgb(255,212,151)" fill-opacity="0.8" d=" M-96.56300354003906,-112.96499633789062 C-96.56300354003906,-112.96499633789062 96.56300354003906,-112.96499633789062 96.56300354003906,-112.96499633789062 C110.4209976196289,-112.96499633789062 121.65499877929688,-101.73100280761719 121.65499877929688,-87.87300109863281 C121.65499877929688,-87.87300109863281 121.65499877929688,87.87300109863281 121.65499877929688,87.87300109863281 C121.65499877929688,101.73100280761719 110.4209976196289,112.96499633789062 96.56300354003906,112.96499633789062 C96.56300354003906,112.96499633789062 -96.56300354003906,112.96499633789062 -96.56300354003906,112.96499633789062 C-110.4209976196289,112.96499633789062 -121.65499877929688,101.73100280761719 -121.65499877929688,87.87300109863281 C-121.65499877929688,87.87300109863281 -121.65499877929688,-87.87300109863281 -121.65499877929688,-87.87300109863281 C-121.65499877929688,-101.73100280761719 -110.4209976196289,-112.96499633789062 -96.56300354003906,-112.96499633789062z"></path></g><g opacity="1" transform="matrix(1,0,0,1,233.79200744628906,268.6130065917969)"><path stroke="url(#__lottie_element_124)" stroke-linecap="butt" stroke-linejoin="miter" fill-opacity="0" stroke-miterlimit="4" stroke-opacity="1" stroke-width="0.896" d=" M-96.56300354003906,-112.51699829101562 C-96.56300354003906,-112.51699829101562 96.56300354003906,-112.51699829101562 96.56300354003906,-112.51699829101562 C110.1729965209961,-112.51699829101562 121.20700073242188,-101.48300170898438 121.20700073242188,-87.87300109863281 C121.20700073242188,-87.87300109863281 121.20700073242188,87.87300109863281 121.20700073242188,87.87300109863281 C121.20700073242188,101.48300170898438 110.1729965209961,112.51699829101562 96.56300354003906,112.51699829101562 C96.56300354003906,112.51699829101562 -96.56300354003906,112.51699829101562 -96.56300354003906,112.51699829101562 C-110.1729965209961,112.51699829101562 -121.20700073242188,101.48300170898438 -121.20700073242188,87.87300109863281 C-121.20700073242188,87.87300109863281 -121.20700073242188,-87.87300109863281 -121.20700073242188,-87.87300109863281 C-121.20700073242188,-101.48300170898438 -110.1729965209961,-112.51699829101562 -96.56300354003906,-112.51699829101562z"></path></g></g><g transform="matrix(1,0,0,1,233.79200744628906,267.6470031738281)" opacity="1" style="display: block;"><g opacity="1" transform="matrix(1,0,0,1,0,0)"><path fill="rgb(255,234,205)" fill-opacity="1" d=" M-70.90499877929688,-84.96499633789062 C-70.90499877929688,-84.96499633789062 70.90499877929688,-84.96499633789062 70.90499877929688,-84.96499633789062 C80.8030014038086,-84.96499633789062 88.8270034790039,-76.94100189208984 88.8270034790039,-67.04299926757812 C88.8270034790039,-67.04299926757812 88.8270034790039,67.04299926757812 88.8270034790039,67.04299926757812 C88.8270034790039,76.94100189208984 80.8030014038086,84.96499633789062 70.90499877929688,84.96499633789062 C70.90499877929688,84.96499633789062 -70.90499877929688,84.96499633789062 -70.90499877929688,84.96499633789062 C-80.8030014038086,84.96499633789062 -88.8270034790039,76.94100189208984 -88.8270034790039,67.04299926757812 C-88.8270034790039,67.04299926757812 -88.8270034790039,-67.04299926757812 -88.8270034790039,-67.04299926757812 C-88.8270034790039,-76.94100189208984 -80.8030014038086,-84.96499633789062 -70.90499877929688,-84.96499633789062z"></path></g></g><g transform="matrix(1,0,0,1,209.86500549316406,283.0950012207031)" opacity="1" style="display: block;"><g opacity="1" transform="matrix(1,0,0,1,0,0)"><path stroke="url(#__lottie_element_117)" stroke-linecap="butt" stroke-linejoin="miter" fill-opacity="0" stroke-miterlimit="4" stroke-opacity="1" stroke-width="5.346" d=" M64.9000015258789,0 C64.9000015258789,0 -64.9000015258789,0 -64.9000015258789,0"></path></g></g><g transform="matrix(1,0,0,1,272.4119873046875,231.44000244140625)" opacity="1" style="display: block;"><g opacity="1" transform="matrix(1,0,0,1,0,0)"><path stroke="url(#__lottie_element_113)" stroke-linecap="butt" stroke-linejoin="miter" fill-opacity="0" stroke-miterlimit="4" stroke-opacity="1" stroke-width="5.377" d=" M0,48.75899887084961 C0,48.75899887084961 0,-48.75899887084961 0,-48.75899887084961"></path></g></g><g transform="matrix(1,0,0,1,208.68800354003906,292.75)" opacity="1" style="display: block;"><g opacity="1" transform="matrix(1,0,0,1,0,0)"><path stroke="url(#__lottie_element_109)" stroke-linecap="butt" stroke-linejoin="miter" fill-opacity="0" stroke-miterlimit="4" stroke-opacity="1" stroke-width="5.377" d=" M-63.7239990234375,-59.86199951171875 C-63.7239990234375,-59.86199951171875 7.296999931335449,-59.86199951171875 7.296999931335449,-59.86199951171875 C7.296999931335449,-59.86199951171875 7.296999931335449,-10.057000160217285 7.296999931335449,-10.057000160217285 C7.296999931335449,-10.057000160217285 63.7239990234375,-10.057000160217285 63.7239990234375,-10.057000160217285 C63.7239990234375,-10.057000160217285 63.7239990234375,59.86199951171875 63.7239990234375,59.86199951171875"></path></g></g><g transform="matrix(1,0,0,1,0,0)" opacity="1" style="display: block;"><g opacity="1" transform="matrix(1,0,0,1,-1.1103515625,10.324447631835938)"><g opacity="1" transform="matrix(1,0,0,1,124.11599731445312,90.14299774169922)"><path fill="rgb(255,212,151)" fill-opacity="1" d=" M-14.338000297546387,-14.338000297546387 C-14.338000297546387,-14.338000297546387 14.338000297546387,-14.338000297546387 14.338000297546387,-14.338000297546387 C14.338000297546387,-14.338000297546387 14.338000297546387,14.338000297546387 14.338000297546387,14.338000297546387 C14.338000297546387,14.338000297546387 -14.338000297546387,14.338000297546387 -14.338000297546387,14.338000297546387 C-14.338000297546387,14.338000297546387 -14.338000297546387,-14.338000297546387 -14.338000297546387,-14.338000297546387z"></path></g><g opacity="1" transform="matrix(1,0,0,1,124.11599731445312,90.14299774169922)"><path stroke="url(#__lottie_element_102)" stroke-linecap="butt" stroke-linejoin="miter" fill-opacity="0" stroke-miterlimit="4" stroke-opacity="1" stroke-width="0.896" d=" M-13.890000343322754,-13.890000343322754 C-13.890000343322754,-13.890000343322754 13.890000343322754,-13.890000343322754 13.890000343322754,-13.890000343322754 C13.890000343322754,-13.890000343322754 13.890000343322754,13.890000343322754 13.890000343322754,13.890000343322754 C13.890000343322754,13.890000343322754 -13.890000343322754,13.890000343322754 -13.890000343322754,13.890000343322754 C-13.890000343322754,13.890000343322754 -13.890000343322754,-13.890000343322754 -13.890000343322754,-13.890000343322754z"></path></g></g><g opacity="1" transform="matrix(1,0,0,1,0,10.554252624511719)"><g opacity="1" transform="matrix(1,0,0,1,403.7099914550781,125.98799896240234)"><path fill="rgb(255,212,151)" fill-opacity="1" d=" M-8.961000442504883,-8.961000442504883 C-8.961000442504883,-8.961000442504883 8.961000442504883,-8.961000442504883 8.961000442504883,-8.961000442504883 C8.961000442504883,-8.961000442504883 8.961000442504883,8.961000442504883 8.961000442504883,8.961000442504883 C8.961000442504883,8.961000442504883 -8.961000442504883,8.961000442504883 -8.961000442504883,8.961000442504883 C-8.961000442504883,8.961000442504883 -8.961000442504883,-8.961000442504883 -8.961000442504883,-8.961000442504883z"></path></g><g opacity="1" transform="matrix(1,0,0,1,403.7099914550781,125.98799896240234)"><path stroke="url(#__lottie_element_103)" stroke-linecap="butt" stroke-linejoin="miter" fill-opacity="0" stroke-miterlimit="4" stroke-opacity="1" stroke-width="0.896" d=" M-8.512999534606934,-8.512999534606934 C-8.512999534606934,-8.512999534606934 8.512999534606934,-8.512999534606934 8.512999534606934,-8.512999534606934 C8.512999534606934,-8.512999534606934 8.512999534606934,8.512999534606934 8.512999534606934,8.512999534606934 C8.512999534606934,8.512999534606934 -8.512999534606934,8.512999534606934 -8.512999534606934,8.512999534606934 C-8.512999534606934,8.512999534606934 -8.512999534606934,-8.512999534606934 -8.512999534606934,-8.512999534606934z"></path></g></g><g opacity="1" transform="matrix(1,0,0,1,-0.0413818359375,2.347259521484375)"><g opacity="1" transform="matrix(1,0,0,1,89.16600036621094,417.2330017089844)"><path fill="rgb(255,212,151)" fill-opacity="1" d=" M-6.2729997634887695,-6.2729997634887695 C-6.2729997634887695,-6.2729997634887695 6.2729997634887695,-6.2729997634887695 6.2729997634887695,-6.2729997634887695 C6.2729997634887695,-6.2729997634887695 6.2729997634887695,6.2729997634887695 6.2729997634887695,6.2729997634887695 C6.2729997634887695,6.2729997634887695 -6.2729997634887695,6.2729997634887695 -6.2729997634887695,6.2729997634887695 C-6.2729997634887695,6.2729997634887695 -6.2729997634887695,-6.2729997634887695 -6.2729997634887695,-6.2729997634887695z"></path></g><g opacity="1" transform="matrix(1,0,0,1,89.16600036621094,417.2330017089844)"><path stroke="url(#__lottie_element_104)" stroke-linecap="butt" stroke-linejoin="miter" fill-opacity="0" stroke-miterlimit="4" stroke-opacity="1" stroke-width="0.896" d=" M-5.824999809265137,-5.824999809265137 C-5.824999809265137,-5.824999809265137 5.824999809265137,-5.824999809265137 5.824999809265137,-5.824999809265137 C5.824999809265137,-5.824999809265137 5.824999809265137,5.824999809265137 5.824999809265137,5.824999809265137 C5.824999809265137,5.824999809265137 -5.824999809265137,5.824999809265137 -5.824999809265137,5.824999809265137 C-5.824999809265137,5.824999809265137 -5.824999809265137,-5.824999809265137 -5.824999809265137,-5.824999809265137z"></path></g></g><g opacity="1" transform="matrix(1,0,0,1,0.1241455078125,-2.371551513671875)"><g opacity="1" transform="matrix(1,0,0,1,407.2950134277344,403.7909851074219)"><path fill="rgb(255,212,151)" fill-opacity="1" d=" M-12.545999526977539,-12.545999526977539 C-12.545999526977539,-12.545999526977539 12.545999526977539,-12.545999526977539 12.545999526977539,-12.545999526977539 C12.545999526977539,-12.545999526977539 12.545999526977539,12.545999526977539 12.545999526977539,12.545999526977539 C12.545999526977539,12.545999526977539 -12.545999526977539,12.545999526977539 -12.545999526977539,12.545999526977539 C-12.545999526977539,12.545999526977539 -12.545999526977539,-12.545999526977539 -12.545999526977539,-12.545999526977539z"></path></g><g opacity="1" transform="matrix(1,0,0,1,407.2950134277344,403.7909851074219)"><path stroke="url(#__lottie_element_105)" stroke-linecap="butt" stroke-linejoin="miter" fill-opacity="0" stroke-miterlimit="4" stroke-opacity="1" stroke-width="0.896" d=" M-12.097999572753906,-12.097999572753906 C-12.097999572753906,-12.097999572753906 12.097999572753906,-12.097999572753906 12.097999572753906,-12.097999572753906 C12.097999572753906,-12.097999572753906 12.097999572753906,12.097999572753906 12.097999572753906,12.097999572753906 C12.097999572753906,12.097999572753906 -12.097999572753906,12.097999572753906 -12.097999572753906,12.097999572753906 C-12.097999572753906,12.097999572753906 -12.097999572753906,-12.097999572753906 -12.097999572753906,-12.097999572753906z"></path></g></g></g><g transform="matrix(1,0,0,1,215.28872680664062,281.8064270019531)" opacity="1" style="display: block;"><g opacity="1" transform="matrix(1,0,0,1,0,0)"><path fill="url(#__lottie_element_98)" fill-opacity="1" d=" M0,-12.765000343322754 C7.050000190734863,-12.765000343322754 12.765000343322754,-7.050000190734863 12.765000343322754,0 C12.765000343322754,7.050000190734863 7.050000190734863,12.765000343322754 0,12.765000343322754 C-7.050000190734863,12.765000343322754 -12.765000343322754,7.050000190734863 -12.765000343322754,0 C-12.765000343322754,-7.050000190734863 -7.050000190734863,-12.765000343322754 0,-12.765000343322754z"></path></g></g></g></svg>