<svg xmlns="http://www.w3.org/2000/svg" xmlns:xlink="http://www.w3.org/1999/xlink" viewBox="0 0 500 500" width="500" height="500" preserveAspectRatio="xMidYMid meet" style="width: 100%; height: 100%; transform: translate3d(0px, 0px, 0px); content-visibility: visible;"><defs><clipPath id="__lottie_element_31"><rect width="500" height="500" x="0" y="0"></rect></clipPath><linearGradient id="__lottie_element_35" spreadMethod="pad" gradientUnits="userSpaceOnUse" x1="47.11399841308594" y1="-148.46299743652344" x2="47.11399841308594" y2="-174.0070037841797"><stop offset="0%" stop-color="rgb(255,255,255)" stop-opacity="0.30000001192092896"></stop><stop offset="50%" stop-color="rgb(255,255,255)" stop-opacity="0.2150000035762787"></stop><stop offset="100%" stop-color="rgb(255,255,255)" stop-opacity="0.12999999523162842"></stop></linearGradient><linearGradient id="__lottie_element_36" spreadMethod="pad" gradientUnits="userSpaceOnUse" x1="46.867000579833984" y1="66.90399932861328" x2="46.867000579833984" y2="50.93899917602539"><stop offset="0%" stop-color="rgb(255,255,255)" stop-opacity="0.30000001192092896"></stop><stop offset="50%" stop-color="rgb(255,255,255)" stop-opacity="0.2150000035762787"></stop><stop offset="100%" stop-color="rgb(255,255,255)" stop-opacity="0.12999999523162842"></stop></linearGradient><linearGradient id="__lottie_element_37" spreadMethod="pad" gradientUnits="userSpaceOnUse" x1="46.737998962402344" y1="405.3320007324219" x2="46.737998962402344" y2="394.1570129394531"><stop offset="0%" stop-color="rgb(255,255,255)" stop-opacity="0.30000001192092896"></stop><stop offset="50%" stop-color="rgb(255,255,255)" stop-opacity="0.2150000035762787"></stop><stop offset="100%" stop-color="rgb(255,255,255)" stop-opacity="0.12999999523162842"></stop></linearGradient><linearGradient id="__lottie_element_38" spreadMethod="pad" gradientUnits="userSpaceOnUse" x1="46.95500183105469" y1="465.05999755859375" x2="46.95500183105469" y2="442.7090148925781"><stop offset="0%" stop-color="rgb(255,255,255)" stop-opacity="0.30000001192092896"></stop><stop offset="50%" stop-color="rgb(255,255,255)" stop-opacity="0.2150000035762787"></stop><stop offset="100%" stop-color="rgb(255,255,255)" stop-opacity="0.12999999523162842"></stop></linearGradient><linearGradient id="__lottie_element_45" spreadMethod="pad" gradientUnits="userSpaceOnUse" x1="47.387001037597656" y1="-34.051998138427734" x2="47.387001037597656" y2="-172.94500732421875"><stop offset="0%" stop-color="rgb(255,255,255)" stop-opacity="0.4000000059604645"></stop><stop offset="50%" stop-color="rgb(255,255,255)" stop-opacity="0.20499999821186066"></stop><stop offset="100%" stop-color="rgb(255,255,255)" stop-opacity="0.009999999776482582"></stop></linearGradient><linearGradient id="__lottie_element_49" spreadMethod="pad" gradientUnits="userSpaceOnUse" x1="14.38700008392334" y1="-68.052001953125" x2="1.3869999647140503" y2="79.27300262451172"><stop offset="0%" stop-color="rgb(0,255,208)"></stop><stop offset="50%" stop-color="rgb(6,206,160)"></stop><stop offset="100%" stop-color="rgb(11,157,113)"></stop></linearGradient><linearGradient id="__lottie_element_53" spreadMethod="pad" gradientUnits="userSpaceOnUse" x1="-1.1670000553131104" y1="-136.23599243164062" x2="-1.1670000553131104" y2="134.39199829101562"><stop offset="0%" stop-color="rgb(0,255,208)"></stop><stop offset="50%" stop-color="rgb(6,206,160)"></stop><stop offset="100%" stop-color="rgb(11,157,113)"></stop></linearGradient><linearGradient id="__lottie_element_57" spreadMethod="pad" gradientUnits="userSpaceOnUse" x1="-2.6050000190734863" y1="142.39500427246094" x2="4.394999980926514" y2="-126.30500030517578"><stop offset="0%" stop-color="rgb(255,255,255)" stop-opacity="0.30000001192092896"></stop><stop offset="50%" stop-color="rgb(255,255,255)" stop-opacity="0.2150000035762787"></stop><stop offset="100%" stop-color="rgb(255,255,255)" stop-opacity="0.12999999523162842"></stop></linearGradient></defs><g clip-path="url(#__lottie_element_31)"><g transform="matrix(1,0,0,1,10.135177612304688,13.116348266601562)" opacity="1" style="display: block;"><g opacity="1" transform="matrix(1,0,0,1,247.60499572753906,252.39500427246094)"><path fill="rgb(71,244,154)" fill-opacity="0.6" d=" M0,-113.3499984741211 C62.60100173950195,-113.3499984741211 113.3499984741211,-62.60100173950195 113.3499984741211,0 C113.3499984741211,62.60100173950195 62.60100173950195,113.3499984741211 0,113.3499984741211 C-62.60100173950195,113.3499984741211 -113.3499984741211,62.60100173950195 -113.3499984741211,0 C-113.3499984741211,-62.60100173950195 -62.60100173950195,-113.3499984741211 0,-113.3499984741211z"></path></g><g opacity="1" transform="matrix(1,0,0,1,247.60499572753906,252.39500427246094)"><path stroke="url(#__lottie_element_57)" stroke-linecap="butt" stroke-linejoin="miter" fill-opacity="0" stroke-miterlimit="4" stroke-opacity="1" stroke-width="0.798" d=" M0,-112.95099639892578 C62.38100051879883,-112.95099639892578 112.95099639892578,-62.38100051879883 112.95099639892578,0 C112.95099639892578,62.38100051879883 62.38100051879883,112.95099639892578 0,112.95099639892578 C-62.38100051879883,112.95099639892578 -112.95099639892578,62.38100051879883 -112.95099639892578,0 C-112.95099639892578,-62.38100051879883 -62.38100051879883,-112.95099639892578 0,-112.95099639892578z"></path></g></g><g transform="matrix(1,0,0,1,258.6090087890625,259.01239013671875)" opacity="1" style="display: block;"><g opacity="1" transform="matrix(1,0,0,1,0,0)"><path fill="url(#__lottie_element_53)" fill-opacity="1" d=" M0,-119.73600006103516 C-66.17400360107422,-119.73600006103516 -119.73600006103516,-66.18399810791016 -119.73600006103516,0 C-119.73600006103516,66.17400360107422 -66.18399810791016,119.73600006103516 0,119.73600006103516 C66.17400360107422,119.73600006103516 119.73600006103516,66.18399810791016 119.73600006103516,0 C119.73600006103516,-66.17500305175781 66.18399810791016,-119.73600006103516 0,-119.73600006103516z M89.91999816894531,-46.14799880981445 C89.91999816894531,-46.14799880981445 60.459999084472656,-46.14799880981445 60.459999084472656,-46.14799880981445 C57.483001708984375,-62.301998138427734 52.957000732421875,-77.01499938964844 47.13800048828125,-89.40699768066406 C65.21299743652344,-79.8489990234375 80.3759994506836,-64.69300079345703 89.91999816894531,-46.14799880981445z M-19.187000274658203,-99.21199798583984 C-12.928000450134277,-100.40899658203125 -6.51200008392334,-101.0270004272461 0,-101.0270004272461 C6.51200008392334,-101.0270004272461 12.928000450134277,-100.40899658203125 19.18600082397461,-99.21199798583984 C29.128999710083008,-87.52999877929688 36.880001068115234,-68.61699676513672 41.400001525878906,-46.14799880981445 C41.400001525878906,-46.14799880981445 -41.39899826049805,-46.14799880981445 -41.39899826049805,-46.14799880981445 C-36.880001068115234,-68.61699676513672 -29.1299991607666,-87.52999877929688 -19.187000274658203,-99.21199798583984z M-101.0270004272461,0 C-101.0270004272461,-9.40999984741211 -99.74500274658203,-18.621999740600586 -97.27200317382812,-27.440000534057617 C-97.27200317382812,-27.440000534057617 -63.13800048828125,-27.440000534057617 -63.13800048828125,-27.440000534057617 C-64.06300354003906,-18.55299949645996 -64.54499816894531,-9.364999771118164 -64.54499816894531,0 C-64.54499816894531,9.364999771118164 -64.06300354003906,18.552000045776367 -63.13800048828125,27.440000534057617 C-63.13800048828125,27.440000534057617 -97.27200317382812,27.440000534057617 -97.27200317382812,27.440000534057617 C-99.74500274658203,18.621000289916992 -101.0270004272461,9.40999984741211 -101.0270004272461,0z M-89.91999816894531,46.14799880981445 C-89.91999816894531,46.14799880981445 -60.459999084472656,46.14799880981445 -60.459999084472656,46.14799880981445 C-57.483001708984375,62.303001403808594 -52.957000732421875,77.01399993896484 -47.13800048828125,89.40599822998047 C-65.21299743652344,79.8479995727539 -80.37699890136719,64.69400024414062 -89.91999816894531,46.14799880981445z M-60.459999084472656,-46.14799880981445 C-60.459999084472656,-46.14799880981445 -89.91999816894531,-46.14799880981445 -89.91999816894531,-46.14799880981445 C-80.3759994506836,-64.69400024414062 -65.21199798583984,-79.8489990234375 -47.13800048828125,-89.40699768066406 C-52.957000732421875,-77.01499938964844 -57.483001708984375,-62.301998138427734 -60.459999084472656,-46.14799880981445z M19.18600082397461,99.21299743652344 C12.928000450134277,100.40899658203125 6.51200008392334,101.0270004272461 0,101.0270004272461 C-6.51200008392334,101.0270004272461 -12.928000450134277,100.40899658203125 -19.187000274658203,99.21299743652344 C-29.1299991607666,87.52999877929688 -36.880001068115234,68.61699676513672 -41.39899826049805,46.14799880981445 C-41.39899826049805,46.14799880981445 41.400001525878906,46.14799880981445 41.400001525878906,46.14799880981445 C36.880001068115234,68.61699676513672 29.128999710083008,87.52999877929688 19.18600082397461,99.21299743652344z M44.310001373291016,27.440000534057617 C44.310001373291016,27.440000534057617 -44.31100082397461,27.440000534057617 -44.31100082397461,27.440000534057617 C-45.31100082397461,18.577999114990234 -45.83599853515625,9.371000289916992 -45.83599853515625,0 C-45.83599853515625,-9.371000289916992 -45.31100082397461,-18.57900047302246 -44.31100082397461,-27.440000534057617 C-44.31100082397461,-27.440000534057617 44.310001373291016,-27.440000534057617 44.310001373291016,-27.440000534057617 C45.308998107910156,-18.57900047302246 45.83599853515625,-9.371000289916992 45.83599853515625,0 C45.83599853515625,9.371000289916992 45.308998107910156,18.577999114990234 44.310001373291016,27.440000534057617z M47.13800048828125,89.40599822998047 C52.957000732421875,77.01399993896484 57.483001708984375,62.303001403808594 60.459999084472656,46.14799880981445 C60.459999084472656,46.14799880981445 89.91999816894531,46.14799880981445 89.91999816894531,46.14799880981445 C80.3759994506836,64.69400024414062 65.21199798583984,79.8499984741211 47.13800048828125,89.40599822998047z M63.137001037597656,27.440000534057617 C64.06300354003906,18.552000045776367 64.5459976196289,9.364999771118164 64.5459976196289,0 C64.5459976196289,-9.364999771118164 64.06300354003906,-18.55299949645996 63.137001037597656,-27.440000534057617 C63.137001037597656,-27.440000534057617 97.27200317382812,-27.440000534057617 97.27200317382812,-27.440000534057617 C99.74700164794922,-18.621999740600586 101.0270004272461,-9.40999984741211 101.0270004272461,0 C101.0270004272461,9.40999984741211 99.74700164794922,18.621000289916992 97.27200317382812,27.440000534057617 C97.27200317382812,27.440000534057617 63.137001037597656,27.440000534057617 63.137001037597656,27.440000534057617z"></path></g></g><g transform="matrix(1,0,0,1,334.6130065917969,182.947998046875)" opacity="1" style="display: block;"><g opacity="1" transform="matrix(1,0,0,1,0,0)"><path fill="url(#__lottie_element_49)" fill-opacity="1" d=" M0,-69.4469985961914 C38.354000091552734,-69.4469985961914 69.4469985961914,-38.354000091552734 69.4469985961914,0 C69.4469985961914,38.354000091552734 38.354000091552734,69.4469985961914 0,69.4469985961914 C-38.354000091552734,69.4469985961914 -69.4469985961914,38.354000091552734 -69.4469985961914,0 C-69.4469985961914,-38.354000091552734 -38.354000091552734,-69.4469985961914 0,-69.4469985961914z"></path></g></g><g transform="matrix(1,0,0,1,334.6130065917969,182.947998046875)" opacity="1" style="display: block;"><g opacity="1" transform="matrix(1,0,0,1,0,0)"><path stroke="url(#__lottie_element_45)" stroke-linecap="butt" stroke-linejoin="miter" fill-opacity="0" stroke-miterlimit="4" stroke-opacity="1" stroke-width="0.798" d=" M0,-69.0479965209961 C38.13399887084961,-69.0479965209961 69.0479965209961,-38.13399887084961 69.0479965209961,0 C69.0479965209961,38.13399887084961 38.13399887084961,69.0479965209961 0,69.0479965209961 C-38.13399887084961,69.0479965209961 -69.0479965209961,38.13399887084961 -69.0479965209961,0 C-69.0479965209961,-38.13399887084961 -38.13399887084961,-69.0479965209961 0,-69.0479965209961z"></path></g></g><g transform="matrix(0.902286946773529,0.13834191858768463,-0.13834191858768463,0.902286946773529,332.5907287597656,175.83702087402344)" opacity="1" style="display: block;"><g opacity="1" transform="matrix(1,0,0,1,0,0)"><path fill="rgb(255,255,255)" fill-opacity="1" d=" M4.080999851226807,7.98199987411499 C4.080999851226807,7.98199987411499 4.080999851226807,11.973999977111816 4.080999851226807,11.973999977111816 C4.080999851226807,13.031999588012695 3.6500000953674316,14.04699993133545 2.884999990463257,14.795999526977539 C2.119999885559082,15.543999671936035 1.0820000171661377,15.96500015258789 0,15.96500015258789 C-1.0820000171661377,15.96500015258789 -2.119999885559082,15.543999671936035 -2.884999990463257,14.795999526977539 C-3.6500000953674316,14.04699993133545 -4.080999851226807,13.031999588012695 -4.080999851226807,11.973999977111816 C-4.080999851226807,11.973999977111816 -4.080999851226807,7.98199987411499 -4.080999851226807,7.98199987411499 C-4.080999851226807,7.98199987411499 -32.63800048828125,7.98199987411499 -32.63800048828125,7.98199987411499 C-34.03200149536133,7.9679999351501465 -35.41299819946289,7.71999979019165 -36.71900177001953,7.248000144958496 C-36.71900177001953,7.248000144958496 -36.71900177001953,19.95599937438965 -36.71900177001953,19.95599937438965 C-36.715999603271484,23.1299991607666 -35.42399978637695,26.173999786376953 -33.130001068115234,28.41900062561035 C-30.836000442504883,30.663999557495117 -27.725000381469727,31.926000595092773 -24.479000091552734,31.93000030517578 C-24.479000091552734,31.93000030517578 24.479000091552734,31.93000030517578 24.479000091552734,31.93000030517578 C27.725000381469727,31.926000595092773 30.836000442504883,30.663999557495117 33.130001068115234,28.41900062561035 C35.42399978637695,26.173999786376953 36.715999603271484,23.1299991607666 36.71900177001953,19.95599937438965 C36.71900177001953,19.95599937438965 36.71900177001953,7.248000144958496 36.71900177001953,7.248000144958496 C35.41299819946289,7.71999979019165 34.03200149536133,7.9679999351501465 32.63800048828125,7.98199987411499 C32.63800048828125,7.98199987411499 4.080999851226807,7.98199987411499 4.080999851226807,7.98199987411499z M32.63800048828125,-15.96500015258789 C32.63800048828125,-15.96500015258789 16.319000244140625,-15.96500015258789 16.319000244140625,-15.96500015258789 C16.319000244140625,-20.198999404907227 14.598999977111816,-24.260000228881836 11.538999557495117,-27.253999710083008 C8.479000091552734,-30.24799919128418 4.328000068664551,-31.93000030517578 0,-31.93000030517578 C-4.328000068664551,-31.93000030517578 -8.479000091552734,-30.24799919128418 -11.538999557495117,-27.253999710083008 C-14.598999977111816,-24.260000228881836 -16.319000244140625,-20.198999404907227 -16.319000244140625,-15.96500015258789 C-16.319000244140625,-15.96500015258789 -32.63800048828125,-15.96500015258789 -32.63800048828125,-15.96500015258789 C-33.720001220703125,-15.96500015258789 -34.757999420166016,-15.543999671936035 -35.52299880981445,-14.795999526977539 C-36.28900146484375,-14.04699993133545 -36.71900177001953,-13.031999588012695 -36.71900177001953,-11.973999977111816 C-36.71900177001953,-11.973999977111816 -36.71900177001953,-3.990999937057495 -36.71900177001953,-3.990999937057495 C-36.71900177001953,-2.933000087738037 -36.28900146484375,-1.9179999828338623 -35.52299880981445,-1.1690000295639038 C-34.757999420166016,-0.42100000381469727 -33.720001220703125,0 -32.63800048828125,0 C-32.63800048828125,0 32.63800048828125,0 32.63800048828125,0 C33.720001220703125,0 34.757999420166016,-0.42100000381469727 35.52299880981445,-1.1690000295639038 C36.28900146484375,-1.9179999828338623 36.71900177001953,-2.933000087738037 36.71900177001953,-3.990999937057495 C36.71900177001953,-3.990999937057495 36.71900177001953,-11.973999977111816 36.71900177001953,-11.973999977111816 C36.71900177001953,-13.031999588012695 36.28900146484375,-14.04699993133545 35.52299880981445,-14.795999526977539 C34.757999420166016,-15.543999671936035 33.720001220703125,-15.96500015258789 32.63800048828125,-15.96500015258789z M-8.15999984741211,-15.96500015258789 C-8.15999984741211,-18.082000732421875 -7.301000118255615,-20.11199951171875 -5.769999980926514,-21.608999252319336 C-4.241000175476074,-23.106000900268555 -2.1649999618530273,-23.94700050354004 0,-23.94700050354004 C2.1649999618530273,-23.94700050354004 4.241000175476074,-23.106000900268555 5.769999980926514,-21.608999252319336 C7.301000118255615,-20.11199951171875 8.15999984741211,-18.082000732421875 8.15999984741211,-15.96500015258789 C8.15999984741211,-15.96500015258789 -8.15999984741211,-15.96500015258789 -8.15999984741211,-15.96500015258789z"></path></g></g><g transform="matrix(1,0,0,1,0,0)" opacity="1" style="display: block;"><g opacity="1" transform="matrix(1,0,0,1,0,-9.509361267089844)"><g opacity="1" transform="matrix(1,0,0,1,210.88600158691406,97.53700256347656)"><path fill="rgb(71,244,154)" fill-opacity="0.7000000000000001" d=" M-12.772000312805176,-12.772000312805176 C-12.772000312805176,-12.772000312805176 12.772000312805176,-12.772000312805176 12.772000312805176,-12.772000312805176 C12.772000312805176,-12.772000312805176 12.772000312805176,12.772000312805176 12.772000312805176,12.772000312805176 C12.772000312805176,12.772000312805176 -12.772000312805176,12.772000312805176 -12.772000312805176,12.772000312805176 C-12.772000312805176,12.772000312805176 -12.772000312805176,-12.772000312805176 -12.772000312805176,-12.772000312805176z"></path></g><g opacity="1" transform="matrix(1,0,0,1,210.88600158691406,97.53700256347656)"><path stroke="url(#__lottie_element_35)" stroke-linecap="butt" stroke-linejoin="miter" fill-opacity="0" stroke-miterlimit="4" stroke-opacity="1" stroke-width="0.798" d=" M-12.373000144958496,-12.373000144958496 C-12.373000144958496,-12.373000144958496 12.373000144958496,-12.373000144958496 12.373000144958496,-12.373000144958496 C12.373000144958496,-12.373000144958496 12.373000144958496,12.373000144958496 12.373000144958496,12.373000144958496 C12.373000144958496,12.373000144958496 -12.373000144958496,12.373000144958496 -12.373000144958496,12.373000144958496 C-12.373000144958496,12.373000144958496 -12.373000144958496,-12.373000144958496 -12.373000144958496,-12.373000144958496z"></path></g></g><g opacity="1" transform="matrix(1,0,0,1,0,2.3773345947265625)"><g opacity="1" transform="matrix(1,0,0,1,99.13300323486328,202.9040069580078)"><path fill="rgb(71,244,154)" fill-opacity="0.7000000000000001" d=" M-7.98199987411499,-7.98199987411499 C-7.98199987411499,-7.98199987411499 7.98199987411499,-7.98199987411499 7.98199987411499,-7.98199987411499 C7.98199987411499,-7.98199987411499 7.98199987411499,7.98199987411499 7.98199987411499,7.98199987411499 C7.98199987411499,7.98199987411499 -7.98199987411499,7.98199987411499 -7.98199987411499,7.98199987411499 C-7.98199987411499,7.98199987411499 -7.98199987411499,-7.98199987411499 -7.98199987411499,-7.98199987411499z"></path></g><g opacity="1" transform="matrix(1,0,0,1,99.13300323486328,202.9040069580078)"><path stroke="url(#__lottie_element_36)" stroke-linecap="butt" stroke-linejoin="miter" fill-opacity="0" stroke-miterlimit="4" stroke-opacity="1" stroke-width="0.798" d=" M-7.583000183105469,-7.583000183105469 C-7.583000183105469,-7.583000183105469 7.583000183105469,-7.583000183105469 7.583000183105469,-7.583000183105469 C7.583000183105469,-7.583000183105469 7.583000183105469,7.583000183105469 7.583000183105469,7.583000183105469 C7.583000183105469,7.583000183105469 -7.583000183105469,7.583000183105469 -7.583000183105469,7.583000183105469 C-7.583000183105469,7.583000183105469 -7.583000183105469,-7.583000183105469 -7.583000183105469,-7.583000183105469z"></path></g></g><g opacity="1" transform="matrix(1,0,0,1,0,-11.094268798828125)"><g opacity="1" transform="matrix(1,0,0,1,403.2619934082031,371.3320007324219)"><path fill="rgb(71,244,154)" fill-opacity="0.7000000000000001" d=" M-5.5879998207092285,-5.5879998207092285 C-5.5879998207092285,-5.5879998207092285 5.5879998207092285,-5.5879998207092285 5.5879998207092285,-5.5879998207092285 C5.5879998207092285,-5.5879998207092285 5.5879998207092285,5.5879998207092285 5.5879998207092285,5.5879998207092285 C5.5879998207092285,5.5879998207092285 -5.5879998207092285,5.5879998207092285 -5.5879998207092285,5.5879998207092285 C-5.5879998207092285,5.5879998207092285 -5.5879998207092285,-5.5879998207092285 -5.5879998207092285,-5.5879998207092285z"></path></g><g opacity="1" transform="matrix(1,0,0,1,403.2619934082031,371.3320007324219)"><path stroke="url(#__lottie_element_37)" stroke-linecap="butt" stroke-linejoin="miter" fill-opacity="0" stroke-miterlimit="4" stroke-opacity="1" stroke-width="0.798" d=" M-5.189000129699707,-5.189000129699707 C-5.189000129699707,-5.189000129699707 5.189000129699707,-5.189000129699707 5.189000129699707,-5.189000129699707 C5.189000129699707,-5.189000129699707 5.189000129699707,5.189000129699707 5.189000129699707,5.189000129699707 C5.189000129699707,5.189000129699707 -5.189000129699707,5.189000129699707 -5.189000129699707,5.189000129699707 C-5.189000129699707,5.189000129699707 -5.189000129699707,-5.189000129699707 -5.189000129699707,-5.189000129699707z"></path></g></g><g opacity="1" transform="matrix(1,0,0,1,0,-6.339569091796875)"><g opacity="1" transform="matrix(1,0,0,1,139.0449981689453,404.05999755859375)"><path fill="rgb(71,244,154)" fill-opacity="0.7000000000000001" d=" M-11.175000190734863,-11.175000190734863 C-11.175000190734863,-11.175000190734863 11.175000190734863,-11.175000190734863 11.175000190734863,-11.175000190734863 C11.175000190734863,-11.175000190734863 11.175000190734863,11.175000190734863 11.175000190734863,11.175000190734863 C11.175000190734863,11.175000190734863 -11.175000190734863,11.175000190734863 -11.175000190734863,11.175000190734863 C-11.175000190734863,11.175000190734863 -11.175000190734863,-11.175000190734863 -11.175000190734863,-11.175000190734863z"></path></g><g opacity="1" transform="matrix(1,0,0,1,139.0449981689453,404.05999755859375)"><path stroke="url(#__lottie_element_38)" stroke-linecap="butt" stroke-linejoin="miter" fill-opacity="0" stroke-miterlimit="4" stroke-opacity="1" stroke-width="0.798" d=" M-10.776000022888184,-10.776000022888184 C-10.776000022888184,-10.776000022888184 10.776000022888184,-10.776000022888184 10.776000022888184,-10.776000022888184 C10.776000022888184,-10.776000022888184 10.776000022888184,10.776000022888184 10.776000022888184,10.776000022888184 C10.776000022888184,10.776000022888184 -10.776000022888184,10.776000022888184 -10.776000022888184,10.776000022888184 C-10.776000022888184,10.776000022888184 -10.776000022888184,-10.776000022888184 -10.776000022888184,-10.776000022888184z"></path></g></g></g></g></svg>