<svg xmlns="http://www.w3.org/2000/svg" xmlns:xlink="http://www.w3.org/1999/xlink" viewBox="0 0 500 500" width="500" height="500" preserveAspectRatio="xMidYMid meet" style="width: 100%; height: 100%; transform: translate3d(0px, 0px, 0px); content-visibility: visible;"><defs><clipPath id="__lottie_element_59"><rect width="500" height="500" x="0" y="0"></rect></clipPath><linearGradient id="__lottie_element_64" spreadMethod="pad" gradientUnits="userSpaceOnUse" x1="-14.593999862670898" y1="-115.13800048828125" x2="-19.5939998626709" y2="110.2249984741211"><stop offset="0%" stop-color="rgb(245,245,245)" stop-opacity="0.30000001192092896"></stop><stop offset="50%" stop-color="rgb(245,245,245)" stop-opacity="0.2150000035762787"></stop><stop offset="100%" stop-color="rgb(245,245,245)" stop-opacity="0.12999999523162842"></stop></linearGradient><linearGradient id="__lottie_element_76" spreadMethod="pad" gradientUnits="userSpaceOnUse" x1="-19.15399932861328" y1="-187.61399841308594" x2="23.84600067138672" y2="95.18299865722656"><stop offset="0%" stop-color="rgb(235,0,214)"></stop><stop offset="50%" stop-color="rgb(197,0,166)"></stop><stop offset="100%" stop-color="rgb(158,0,118)"></stop></linearGradient><linearGradient id="__lottie_element_80" spreadMethod="pad" gradientUnits="userSpaceOnUse" x1="47.0629997253418" y1="456.4230041503906" x2="47.0629997253418" y2="434.69500732421875"><stop offset="0%" stop-color="rgb(245,245,245)" stop-opacity="0.30000001192092896"></stop><stop offset="50%" stop-color="rgb(245,245,245)" stop-opacity="0.2150000035762787"></stop><stop offset="100%" stop-color="rgb(245,245,245)" stop-opacity="0.12999999523162842"></stop></linearGradient><linearGradient id="__lottie_element_84" spreadMethod="pad" gradientUnits="userSpaceOnUse" x1="47.207000732421875" y1="354.8789978027344" x2="47.207000732421875" y2="344.0150146484375"><stop offset="0%" stop-color="rgb(245,245,245)" stop-opacity="0.30000001192092896"></stop><stop offset="50%" stop-color="rgb(245,245,245)" stop-opacity="0.2150000035762787"></stop><stop offset="100%" stop-color="rgb(245,245,245)" stop-opacity="0.12999999523162842"></stop></linearGradient><linearGradient id="__lottie_element_88" spreadMethod="pad" gradientUnits="userSpaceOnUse" x1="47.367000579833984" y1="0.7269999980926514" x2="47.367000579833984" y2="-14.793000221252441"><stop offset="0%" stop-color="rgb(245,245,245)" stop-opacity="0.30000001192092896"></stop><stop offset="50%" stop-color="rgb(245,245,245)" stop-opacity="0.2150000035762787"></stop><stop offset="100%" stop-color="rgb(245,245,245)" stop-opacity="0.12999999523162842"></stop></linearGradient><linearGradient id="__lottie_element_92" spreadMethod="pad" gradientUnits="userSpaceOnUse" x1="47.222999572753906" y1="-140.56100463867188" x2="47.222999572753906" y2="-165.39300537109375"><stop offset="0%" stop-color="rgb(245,245,245)" stop-opacity="0.30000001192092896"></stop><stop offset="50%" stop-color="rgb(245,245,245)" stop-opacity="0.2150000035762787"></stop><stop offset="100%" stop-color="rgb(245,245,245)" stop-opacity="0.12999999523162842"></stop></linearGradient></defs><g clip-path="url(#__lottie_element_59)"><g transform="matrix(1,0,0,1,0,4.8772735595703125)" opacity="1" style="display: block;"><g opacity="1" transform="matrix(1,0,0,1,369.63299560546875,169.7270050048828)"><path fill="rgb(255,105,206)" fill-opacity="1" d=" M-7.760000228881836,-7.760000228881836 C-7.760000228881836,-7.760000228881836 7.760000228881836,-7.760000228881836 7.760000228881836,-7.760000228881836 C7.760000228881836,-7.760000228881836 7.760000228881836,7.760000228881836 7.760000228881836,7.760000228881836 C7.760000228881836,7.760000228881836 -7.760000228881836,7.760000228881836 -7.760000228881836,7.760000228881836 C-7.760000228881836,7.760000228881836 -7.760000228881836,-7.760000228881836 -7.760000228881836,-7.760000228881836z"></path></g><g opacity="1" transform="matrix(1,0,0,1,369.63299560546875,169.7270050048828)"><path stroke="url(#__lottie_element_88)" stroke-linecap="butt" stroke-linejoin="miter" fill-opacity="0" stroke-miterlimit="4" stroke-opacity="1" stroke-width="0.776" d=" M-7.372000217437744,-7.372000217437744 C-7.372000217437744,-7.372000217437744 7.372000217437744,-7.372000217437744 7.372000217437744,-7.372000217437744 C7.372000217437744,-7.372000217437744 7.372000217437744,7.372000217437744 7.372000217437744,7.372000217437744 C7.372000217437744,7.372000217437744 -7.372000217437744,7.372000217437744 -7.372000217437744,7.372000217437744 C-7.372000217437744,7.372000217437744 -7.372000217437744,-7.372000217437744 -7.372000217437744,-7.372000217437744z"></path></g></g><g transform="matrix(1,0,0,1,0,-7.31591796875)" opacity="1" style="display: block;"><g opacity="1" transform="matrix(1,0,0,1,396.7929992675781,345.8789978027344)"><path fill="rgb(255,105,206)" fill-opacity="1" d=" M-5.432000160217285,-5.432000160217285 C-5.432000160217285,-5.432000160217285 5.432000160217285,-5.432000160217285 5.432000160217285,-5.432000160217285 C5.432000160217285,-5.432000160217285 5.432000160217285,5.432000160217285 5.432000160217285,5.432000160217285 C5.432000160217285,5.432000160217285 -5.432000160217285,5.432000160217285 -5.432000160217285,5.432000160217285 C-5.432000160217285,5.432000160217285 -5.432000160217285,-5.432000160217285 -5.432000160217285,-5.432000160217285z"></path></g><g opacity="1" transform="matrix(1,0,0,1,396.7929992675781,345.8789978027344)"><path stroke="url(#__lottie_element_84)" stroke-linecap="butt" stroke-linejoin="miter" fill-opacity="0" stroke-miterlimit="4" stroke-opacity="1" stroke-width="0.776" d=" M-5.044000148773193,-5.044000148773193 C-5.044000148773193,-5.044000148773193 5.044000148773193,-5.044000148773193 5.044000148773193,-5.044000148773193 C5.044000148773193,-5.044000148773193 5.044000148773193,5.044000148773193 5.044000148773193,5.044000148773193 C5.044000148773193,5.044000148773193 -5.044000148773193,5.044000148773193 -5.044000148773193,5.044000148773193 C-5.044000148773193,5.044000148773193 -5.044000148773193,-5.044000148773193 -5.044000148773193,-5.044000148773193z"></path></g></g><g transform="matrix(1,0,0,1,-0.40643310546875,-6.90948486328125)" opacity="1" style="display: block;"><g opacity="1" transform="matrix(1,0,0,1,139.93699645996094,399.4230041503906)"><path fill="rgb(255,105,206)" fill-opacity="1" d=" M-10.86400032043457,-10.86400032043457 C-10.86400032043457,-10.86400032043457 10.86400032043457,-10.86400032043457 10.86400032043457,-10.86400032043457 C10.86400032043457,-10.86400032043457 10.86400032043457,10.86400032043457 10.86400032043457,10.86400032043457 C10.86400032043457,10.86400032043457 -10.86400032043457,10.86400032043457 -10.86400032043457,10.86400032043457 C-10.86400032043457,10.86400032043457 -10.86400032043457,-10.86400032043457 -10.86400032043457,-10.86400032043457z"></path></g><g opacity="1" transform="matrix(1,0,0,1,139.93699645996094,399.4230041503906)"><path stroke="url(#__lottie_element_80)" stroke-linecap="butt" stroke-linejoin="miter" fill-opacity="0" stroke-miterlimit="4" stroke-opacity="1" stroke-width="0.776" d=" M-10.47599983215332,-10.47599983215332 C-10.47599983215332,-10.47599983215332 10.47599983215332,-10.47599983215332 10.47599983215332,-10.47599983215332 C10.47599983215332,-10.47599983215332 10.47599983215332,10.47599983215332 10.47599983215332,10.47599983215332 C10.47599983215332,10.47599983215332 -10.47599983215332,10.47599983215332 -10.47599983215332,10.47599983215332 C-10.47599983215332,10.47599983215332 -10.47599983215332,-10.47599983215332 -10.47599983215332,-10.47599983215332z"></path></g></g><g transform="matrix(1,0,0,1,288.15399169921875,294.2126770019531)" opacity="1" style="display: block;"><g opacity="1" transform="matrix(1,0,0,1,0,0)"><path fill="url(#__lottie_element_76)" fill-opacity="1" d=" M0,72.16799926757812 C-57.792999267578125,72.16799926757812 -104.64399719238281,36.625 -104.64399719238281,-7.2170000076293945 C-104.64399719238281,-51.060001373291016 -57.792999267578125,-86.60199737548828 0,-86.60199737548828 C57.792999267578125,-86.60199737548828 104.64399719238281,-51.060001373291016 104.64399719238281,-7.2170000076293945 C104.64399719238281,24.30699920654297 80.4219970703125,51.540000915527344 45.327999114990234,64.3550033569336 C53.729000091552734,79.18599700927734 68.55999755859375,86.60199737548828 68.55999755859375,86.60199737548828 C68.55999755859375,86.60199737548828 37.89699935913086,83.53500366210938 14.54699993133545,71.40799713134766 C9.793000221252441,71.90899658203125 4.936999797821045,72.16799926757812 0,72.16799926757812z"></path></g></g><g transform="matrix(1,0,0,1,0,2.087677001953125)" opacity="1" style="display: block;"><g opacity="1" transform="matrix(1,0,0,1,219.593994140625,244.86900329589844)"><path fill="rgb(255,105,206)" fill-opacity="0.6900000000000001" d=" M0,79.38500213623047 C63.77199935913086,79.38500213623047 115.46900177001953,40.61199951171875 115.46900177001953,-7.2170000076293945 C115.46900177001953,-55.04600143432617 63.77199935913086,-93.81900024414062 0,-93.81900024414062 C-63.77199935913086,-93.81900024414062 -115.46900177001953,-55.04600143432617 -115.46900177001953,-7.2170000076293945 C-115.46900177001953,25.733999252319336 -90.93199920654297,54.387001037597656 -54.8129997253418,69.0250015258789 C-62.85599899291992,85.55400085449219 -79.38500213623047,93.81900024414062 -79.38500213623047,93.81900024414062 C-79.38500213623047,93.81900024414062 -47.005001068115234,90.58100128173828 -23.45400047302246,77.59700012207031 C-15.880999565124512,78.76899719238281 -8.03600025177002,79.38500213623047 0,79.38500213623047z"></path></g><g opacity="1" transform="matrix(1,0,0,1,219.593994140625,244.86700439453125)"><path fill="url(#__lottie_element_64)" fill-opacity="0.6900000000000001" d=" M-54.8129997253418,69.0270004272461 C-54.8129997253418,69.0270004272461 -54.1150016784668,69.36499786376953 -54.1150016784668,69.36499786376953 C-54.1150016784668,69.36499786376953 -53.750999450683594,68.61900329589844 -53.750999450683594,68.61900329589844 C-53.750999450683594,68.61900329589844 -54.520999908447266,68.30699920654297 -54.520999908447266,68.30699920654297 C-54.520999908447266,68.30699920654297 -54.8129997253418,69.0270004272461 -54.8129997253418,69.0270004272461z M-79.38500213623047,93.81999969482422 C-79.38500213623047,93.81999969482422 -79.73200225830078,93.1259994506836 -79.73200225830078,93.1259994506836 C-79.73200225830078,93.1259994506836 -79.30799865722656,94.59300231933594 -79.30799865722656,94.59300231933594 C-79.30799865722656,94.59300231933594 -79.38500213623047,93.81999969482422 -79.38500213623047,93.81999969482422z M-23.45400047302246,77.5989990234375 C-23.45400047302246,77.5989990234375 -23.334999084472656,76.83200073242188 -23.334999084472656,76.83200073242188 C-23.334999084472656,76.83200073242188 -23.59600067138672,76.79100036621094 -23.59600067138672,76.79100036621094 C-23.59600067138672,76.79100036621094 -23.827999114990234,76.91899871826172 -23.827999114990234,76.91899871826172 C-23.827999114990234,76.91899871826172 -23.45400047302246,77.5989990234375 -23.45400047302246,77.5989990234375z M114.69300079345703,-7.215000152587891 C114.69300079345703,16.399999618530273 101.93299865722656,37.8390007019043 81.18399810791016,53.4010009765625 C60.435001373291016,68.96299743652344 31.733999252319336,78.61000061035156 0,78.61000061035156 C0,78.61000061035156 0,80.16200256347656 0,80.16200256347656 C32.03799819946289,80.16200256347656 61.073001861572266,70.4229965209961 82.11499786376953,54.641998291015625 C103.15699768066406,38.86000061035156 116.24500274658203,16.99799919128418 116.24500274658203,-7.215000152587891 C116.24500274658203,-7.215000152587891 114.69300079345703,-7.215000152587891 114.69300079345703,-7.215000152587891z M0,-93.04100036621094 C31.733999252319336,-93.04100036621094 60.435001373291016,-83.39299774169922 81.18399810791016,-67.83100128173828 C101.93299865722656,-52.26900100708008 114.69300079345703,-30.829999923706055 114.69300079345703,-7.215000152587891 C114.69300079345703,-7.215000152587891 116.24500274658203,-7.215000152587891 116.24500274658203,-7.215000152587891 C116.24500274658203,-31.429000854492188 103.15699768066406,-53.29100036621094 82.11499786376953,-69.072998046875 C61.073001861572266,-84.8550033569336 32.03799819946289,-94.59300231933594 0,-94.59300231933594 C0,-94.59300231933594 0,-93.04100036621094 0,-93.04100036621094z M-114.69300079345703,-7.215000152587891 C-114.69300079345703,-30.829999923706055 -101.93199920654297,-52.26900100708008 -81.18299865722656,-67.83100128173828 C-60.433998107910156,-83.39299774169922 -31.733999252319336,-93.04100036621094 0,-93.04100036621094 C0,-93.04100036621094 0,-94.59300231933594 0,-94.59300231933594 C-32.03799819946289,-94.59300231933594 -61.071998596191406,-84.8550033569336 -82.11399841308594,-69.072998046875 C-103.15699768066406,-53.29100036621094 -116.24500274658203,-31.429000854492188 -116.24500274658203,-7.215000152587891 C-116.24500274658203,-7.215000152587891 -114.69300079345703,-7.215000152587891 -114.69300079345703,-7.215000152587891z M-54.520999908447266,68.30699920654297 C-90.45700073242188,53.74399948120117 -114.69300079345703,25.31599998474121 -114.69300079345703,-7.215000152587891 C-114.69300079345703,-7.215000152587891 -116.24500274658203,-7.215000152587891 -116.24500274658203,-7.215000152587891 C-116.24500274658203,26.1560001373291 -91.40599822998047,55.034000396728516 -55.104000091552734,69.74500274658203 C-55.104000091552734,69.74500274658203 -54.520999908447266,68.30699920654297 -54.520999908447266,68.30699920654297z M-55.5099983215332,68.68699645996094 C-59.46500015258789,76.81300354003906 -65.51599884033203,82.9280014038086 -70.60099792480469,87.01799774169922 C-73.13999938964844,89.05999755859375 -75.43099975585938,90.58999633789062 -77.08399963378906,91.61000061035156 C-77.91000366210938,92.11900329589844 -78.57599639892578,92.5009994506836 -79.03399658203125,92.75399780273438 C-79.26300048828125,92.87999725341797 -79.44000244140625,92.9739990234375 -79.55799865722656,93.03600311279297 C-79.61699676513672,93.06700134277344 -79.66200256347656,93.09100341796875 -79.69100189208984,93.1050033569336 C-79.70600128173828,93.11299896240234 -79.71600341796875,93.11900329589844 -79.7229995727539,93.12200164794922 C-79.72599792480469,93.1240005493164 -79.7300033569336,93.125 -79.73100280761719,93.125 C-79.73200225830078,93.12699890136719 -79.73200225830078,93.1259994506836 -79.73200225830078,93.1259994506836 C-79.73200225830078,93.1259994506836 -79.73200225830078,93.1259994506836 -79.73200225830078,93.1259994506836 C-79.73200225830078,93.1259994506836 -79.73200225830078,93.1259994506836 -79.38500213623047,93.81999969482422 C-79.03800201416016,94.51399993896484 -79.03700256347656,94.51399993896484 -79.03700256347656,94.51399993896484 C-79.03700256347656,94.51399993896484 -79.03600311279297,94.51399993896484 -79.03600311279297,94.51399993896484 C-79.03500366210938,94.51399993896484 -79.03399658203125,94.51200103759766 -79.03299713134766,94.51200103759766 C-79.02999877929688,94.51000213623047 -79.02799987792969,94.50900268554688 -79.02300262451172,94.50599670410156 C-79.01399993896484,94.5009994506836 -79.0009994506836,94.49500274658203 -78.98400115966797,94.48699951171875 C-78.94999694824219,94.46800231933594 -78.9010009765625,94.44400024414062 -78.83699798583984,94.41000366210938 C-78.70899963378906,94.34300231933594 -78.52300262451172,94.24400329589844 -78.28399658203125,94.11199951171875 C-77.80599975585938,93.8479995727539 -77.11799621582031,93.45600128173828 -76.26899719238281,92.93099975585938 C-74.57099914550781,91.88500213623047 -72.22699737548828,90.31600189208984 -69.62899780273438,88.22699737548828 C-64.43800354003906,84.052001953125 -58.20399856567383,77.76799774169922 -54.1150016784668,69.36499786376953 C-54.1150016784668,69.36499786376953 -55.5099983215332,68.68699645996094 -55.5099983215332,68.68699645996094z M-79.38500213623047,93.81999969482422 C-79.30799865722656,94.59300231933594 -79.30699920654297,94.59300231933594 -79.30699920654297,94.59300231933594 C-79.30699920654297,94.59300231933594 -79.30599975585938,94.59100341796875 -79.30599975585938,94.59100341796875 C-79.30500030517578,94.59100341796875 -79.3030014038086,94.59100341796875 -79.3010025024414,94.59100341796875 C-79.2969970703125,94.59100341796875 -79.29000091552734,94.58999633789062 -79.28199768066406,94.58999633789062 C-79.26599884033203,94.58799743652344 -79.24199676513672,94.58499908447266 -79.20999908447266,94.58200073242188 C-79.14700317382812,94.57599639892578 -79.0530014038086,94.56500244140625 -78.93000030517578,94.5530014038086 C-78.68399810791016,94.5250015258789 -78.3219985961914,94.48200225830078 -77.85299682617188,94.42500305175781 C-76.91500091552734,94.31199645996094 -75.552001953125,94.13400268554688 -73.84300231933594,93.87899780273438 C-70.42500305175781,93.37000274658203 -65.6240005493164,92.55599975585938 -60.08399963378906,91.33499908447266 C-49.01499938964844,88.89700317382812 -34.94900131225586,84.82099914550781 -23.07900047302246,78.27799987792969 C-23.07900047302246,78.27799987792969 -23.827999114990234,76.91899871826172 -23.827999114990234,76.91899871826172 C-35.50899887084961,83.36000061035156 -49.409000396728516,87.3949966430664 -60.417999267578125,89.82099914550781 C-65.91699981689453,91.03299713134766 -70.68199920654297,91.83999633789062 -74.0719985961914,92.34400177001953 C-75.76699829101562,92.59500122070312 -77.11699676513672,92.77300262451172 -78.04199981689453,92.88600158691406 C-78.50499725341797,92.94200134277344 -78.86100006103516,92.98400115966797 -79.10099792480469,93.01000213623047 C-79.22100067138672,93.02200317382812 -79.31099700927734,93.03099822998047 -79.37200164794922,93.03900146484375 C-79.4020004272461,93.04199981689453 -79.42500305175781,93.04399871826172 -79.44000244140625,93.0459976196289 C-79.447998046875,93.0479965209961 -79.4530029296875,93.0469970703125 -79.45700073242188,93.0469970703125 C-79.45899963378906,93.0469970703125 -79.45999908447266,93.0469970703125 -79.46099853515625,93.0469970703125 C-79.46099853515625,93.04900360107422 -79.46199798583984,93.04900360107422 -79.46199798583984,93.04900360107422 C-79.46199798583984,93.04900360107422 -79.46199798583984,93.04900360107422 -79.38500213623047,93.81999969482422z M0,78.61000061035156 C-7.997000217437744,78.61000061035156 -15.800999641418457,77.99800109863281 -23.334999084472656,76.83200073242188 C-23.334999084472656,76.83200073242188 -23.57200050354004,78.36499786376953 -23.57200050354004,78.36499786376953 C-15.958999633789062,79.54299926757812 -8.076000213623047,80.16200256347656 0,80.16200256347656 C0,80.16200256347656 0,78.61000061035156 0,78.61000061035156z"></path></g></g><g transform="matrix(1,0,0,1,222.80299377441406,229.76199340820312)" opacity="1" style="display: none;"><g opacity="1" transform="matrix(1,0,0,1,0,0)"><path fill="rgb(255,255,255)" fill-opacity="1" d=" M-45.880001068115234,-19.238000869750977 C-46.124000549316406,-20.18000030517578 -46.18000030517578,-21.163000106811523 -46.04600143432617,-22.132999420166016 C-45.9119987487793,-23.10300064086914 -45.590999603271484,-24.040000915527344 -45.099998474121094,-24.889999389648438 C-44.60900115966797,-25.739999771118164 -43.95899963378906,-26.486000061035156 -43.18600082397461,-27.086999893188477 C-42.41299819946289,-27.687999725341797 -41.53300094604492,-28.131000518798828 -40.595001220703125,-28.391000747680664 C-22.389999389648438,-33.42399978637695 -3.059999942779541,-30.993999481201172 13.152999877929688,-21.632999420166016 C29.365999221801758,-12.27299976348877 41.137001037597656,3.253000020980835 45.880001068115234,21.535999298095703 C46.37200164794922,23.437999725341797 46.090999603271484,25.47100067138672 45.10100173950195,27.187999725341797 C44.10900115966797,28.905000686645508 42.487998962402344,30.163999557495117 40.595001220703125,30.68899917602539 C38.70199966430664,31.214000701904297 36.691001892089844,30.961999893188477 35.005001068115234,29.988000869750977 C33.31800079345703,29.013999938964844 32.09400177001953,27.39900016784668 31.601999282836914,25.496999740600586 C27.841999053955078,11.017999649047852 18.520000457763672,-1.2769999504089355 5.678999900817871,-8.690999984741211 C-7.1620001792907715,-16.104999542236328 -22.47100067138672,-18.0310001373291 -36.88999938964844,-14.04800033569336 C-38.78300094604492,-13.52400016784668 -40.792999267578125,-13.776000022888184 -42.479000091552734,-14.74899959564209 C-44.165000915527344,-15.722000122070312 -45.38800048828125,-17.336999893188477 -45.880001068115234,-19.238000869750977z"></path></g></g><g transform="matrix(1,0,0,1,212.18800354003906,250.85067749023438)" opacity="0.2699053148559102" style="display: block;"><g opacity="1" transform="matrix(1,0,0,1,0,0)"><path fill="rgb(255,255,255)" fill-opacity="1" d=" M12.26200008392334,13.555999755859375 C10.600000381469727,7.301000118255615 6.53000020980835,1.9769999980926514 0.9430000185966492,-1.2489999532699585 C-4.644000053405762,-4.474999904632568 -11.291000366210938,-5.3379998207092285 -17.538999557495117,-3.6489999294281006 C-19.38599967956543,-3.1760001182556152 -21.340999603271484,-3.4509999752044678 -22.979999542236328,-4.413000106811523 C-24.618999481201172,-5.375 -25.81100082397461,-6.947000026702881 -26.298999786376953,-8.789999961853027 C-26.78700065612793,-10.633000373840332 -26.5310001373291,-12.600000381469727 -25.586999893188477,-14.263999938964844 C-24.64299964904785,-15.928000450134277 -23.086999893188477,-17.155000686645508 -21.253999710083008,-17.68199920654297 C-11.289999961853027,-20.375 -0.6899999976158142,-18.999000549316406 8.220000267028809,-13.854999542236328 C17.1299991607666,-8.711000442504883 23.621999740600586,-0.21899999678134918 26.27199935913086,9.756999969482422 C26.5310001373291,10.684000015258789 26.604000091552734,11.652999877929688 26.486000061035156,12.609999656677246 C26.368000030517578,13.567000389099121 26.062999725341797,14.493000030517578 25.586000442504883,15.331999778747559 C25.108999252319336,16.17099952697754 24.47100067138672,16.908000946044922 23.708999633789062,17.499000549316406 C22.94700050354004,18.09000015258789 22.07699966430664,18.524999618530273 21.148000717163086,18.777000427246094 C20.2189998626709,19.02899932861328 19.25200080871582,19.0939998626709 18.299999237060547,18.966999053955078 C17.347999572753906,18.84000015258789 16.433000564575195,18.524999618530273 15.605999946594238,18.038999557495117 C14.779000282287598,17.55299949645996 14.057999610900879,16.9060001373291 13.484000205993652,16.136999130249023 C12.90999984741211,15.368000030517578 12.494000434875488,14.489999771118164 12.26200008392334,13.555999755859375 C12.26200008392334,13.555999755859375 12.26200008392334,13.555999755859375 12.26200008392334,13.555999755859375z"></path></g></g><g transform="matrix(1,0,0,1,201.02200317382812,270.732666015625)" opacity="0.9566703660751005" style="display: block;"><g opacity="1" transform="matrix(1,0,0,1,0,0)"><path fill="rgb(255,255,255)" fill-opacity="1" d=" M7.020999908447266,5.7230000495910645 C10.173999786376953,1.8650000095367432 9.588000297546387,-3.8259999752044678 5.710000038146973,-6.986000061035156 C1.8320000171661377,-10.147000312805176 -3.868000030517578,-9.581999778747559 -7.020999908447266,-5.7230000495910645 C-10.173999786376953,-1.8650000095367432 -9.588000297546387,3.825000047683716 -5.710000038146973,6.986000061035156 C-1.8320000171661377,10.147000312805176 3.868000030517578,9.581999778747559 7.020999908447266,5.7230000495910645z"></path></g></g></g></svg>