<svg xmlns="http://www.w3.org/2000/svg" xmlns:xlink="http://www.w3.org/1999/xlink" viewBox="0 0 500 500" width="500" height="500" preserveAspectRatio="xMidYMid meet" style="width: 100%; height: 100%; transform: translate3d(0px, 0px, 0px); content-visibility: visible;"><defs><clipPath id="__lottie_element_174"><rect width="500" height="500" x="0" y="0"></rect></clipPath><linearGradient id="__lottie_element_178" spreadMethod="pad" gradientUnits="userSpaceOnUse" x1="46.999000549316406" y1="-157.37899780273438" x2="46.999000549316406" y2="-185.9149932861328"><stop offset="0%" stop-color="rgb(255,255,255)" stop-opacity="0.30000001192092896"></stop><stop offset="50%" stop-color="rgb(255,255,255)" stop-opacity="0.2150000035762787"></stop><stop offset="100%" stop-color="rgb(255,255,255)" stop-opacity="0.12999999523162842"></stop></linearGradient><linearGradient id="__lottie_element_179" spreadMethod="pad" gradientUnits="userSpaceOnUse" x1="47.20899963378906" y1="-86.05999755859375" x2="47.20899963378906" y2="-103.8949966430664"><stop offset="0%" stop-color="rgb(255,255,255)" stop-opacity="0.30000001192092896"></stop><stop offset="50%" stop-color="rgb(255,255,255)" stop-opacity="0.2150000035762787"></stop><stop offset="100%" stop-color="rgb(255,255,255)" stop-opacity="0.12999999523162842"></stop></linearGradient><linearGradient id="__lottie_element_180" spreadMethod="pad" gradientUnits="userSpaceOnUse" x1="47.31800079345703" y1="399.385009765625" x2="47.31800079345703" y2="379.7669982910156"><stop offset="0%" stop-color="rgb(255,255,255)" stop-opacity="0.30000001192092896"></stop><stop offset="50%" stop-color="rgb(255,255,255)" stop-opacity="0.2150000035762787"></stop><stop offset="100%" stop-color="rgb(255,255,255)" stop-opacity="0.12999999523162842"></stop></linearGradient><linearGradient id="__lottie_element_181" spreadMethod="pad" gradientUnits="userSpaceOnUse" x1="47.617000579833984" y1="466.1629943847656" x2="47.617000579833984" y2="441.1940002441406"><stop offset="0%" stop-color="rgb(255,255,255)" stop-opacity="0.30000001192092896"></stop><stop offset="50%" stop-color="rgb(255,255,255)" stop-opacity="0.2150000035762787"></stop><stop offset="100%" stop-color="rgb(255,255,255)" stop-opacity="0.12999999523162842"></stop></linearGradient><linearGradient id="__lottie_element_188" spreadMethod="pad" gradientUnits="userSpaceOnUse" x1="46.696998596191406" y1="100.80899810791016" x2="46.696998596191406" y2="-75.75499725341797"><stop offset="0%" stop-color="rgb(255,255,255)" stop-opacity="0.30000001192092896"></stop><stop offset="50%" stop-color="rgb(255,255,255)" stop-opacity="0.2150000035762787"></stop><stop offset="100%" stop-color="rgb(255,255,255)" stop-opacity="0.12999999523162842"></stop></linearGradient><linearGradient id="__lottie_element_192" spreadMethod="pad" gradientUnits="userSpaceOnUse" x1="1.5889999866485596" y1="-107.61799621582031" x2="2.5889999866485596" y2="105.9000015258789"><stop offset="0%" stop-color="rgb(143,91,255)"></stop><stop offset="50%" stop-color="rgb(83,45,227)"></stop><stop offset="100%" stop-color="rgb(22,0,200)"></stop></linearGradient></defs><g clip-path="url(#__lottie_element_174)"><g transform="matrix(1,0,0,1,245.41099548339844,230.3820037841797)" opacity="1" style="display: block;"><g opacity="1" transform="matrix(1,0,0,1,0,0)"><path fill="url(#__lottie_element_192)" fill-opacity="1" d=" M-89.17400360107422,-92.74099731445312 C-89.17400360107422,-92.74099731445312 89.17400360107422,-92.74099731445312 89.17400360107422,-92.74099731445312 C91.14399719238281,-92.74099731445312 92.74099731445312,-91.14399719238281 92.74099731445312,-89.17400360107422 C92.74099731445312,-89.17400360107422 92.74099731445312,89.17400360107422 92.74099731445312,89.17400360107422 C92.74099731445312,91.14399719238281 91.14399719238281,92.74099731445312 89.17400360107422,92.74099731445312 C89.17400360107422,92.74099731445312 -89.17400360107422,92.74099731445312 -89.17400360107422,92.74099731445312 C-91.14399719238281,92.74099731445312 -92.74099731445312,91.14399719238281 -92.74099731445312,89.17400360107422 C-92.74099731445312,89.17400360107422 -92.74099731445312,-89.17400360107422 -92.74099731445312,-89.17400360107422 C-92.74099731445312,-91.14399719238281 -91.14399719238281,-92.74099731445312 -89.17400360107422,-92.74099731445312z"></path></g></g><g transform="matrix(0.9969896674156189,0,0,0.9969896674156189,0.741455078125,0.7821044921875)" opacity="1" style="display: block;"><g opacity="1" transform="matrix(1,0,0,1,246.30299377441406,259.8089904785156)"><path fill="rgb(136,125,255)" fill-opacity="0.7000000000000001" d=" M-127.51899719238281,-88.28199768066406 C-127.51899719238281,-88.28199768066406 127.51899719238281,-88.28199768066406 127.51899719238281,-88.28199768066406 C131.45899963378906,-88.28199768066406 134.6529998779297,-85.08799743652344 134.6529998779297,-81.14800262451172 C134.6529998779297,-81.14800262451172 134.6529998779297,81.14800262451172 134.6529998779297,81.14800262451172 C134.6529998779297,85.08799743652344 131.45899963378906,88.28199768066406 127.51899719238281,88.28199768066406 C127.51899719238281,88.28199768066406 -127.51899719238281,88.28199768066406 -127.51899719238281,88.28199768066406 C-131.45899963378906,88.28199768066406 -134.6529998779297,85.08799743652344 -134.6529998779297,81.14800262451172 C-134.6529998779297,81.14800262451172 -134.6529998779297,-81.14800262451172 -134.6529998779297,-81.14800262451172 C-134.6529998779297,-85.08799743652344 -131.45899963378906,-88.28199768066406 -127.51899719238281,-88.28199768066406z"></path></g><g opacity="1" transform="matrix(1,0,0,1,246.30299377441406,259.8089904785156)"><path stroke="url(#__lottie_element_188)" stroke-linecap="butt" stroke-linejoin="miter" fill-opacity="0" stroke-miterlimit="4" stroke-opacity="1" stroke-width="0.892" d=" M-127.51899719238281,-87.83599853515625 C-127.51899719238281,-87.83599853515625 127.51899719238281,-87.83599853515625 127.51899719238281,-87.83599853515625 C131.21299743652344,-87.83599853515625 134.20700073242188,-84.84200286865234 134.20700073242188,-81.14800262451172 C134.20700073242188,-81.14800262451172 134.20700073242188,81.14800262451172 134.20700073242188,81.14800262451172 C134.20700073242188,84.84200286865234 131.21299743652344,87.83599853515625 127.51899719238281,87.83599853515625 C127.51899719238281,87.83599853515625 -127.51899719238281,87.83599853515625 -127.51899719238281,87.83599853515625 C-131.21299743652344,87.83599853515625 -134.20700073242188,84.84200286865234 -134.20700073242188,81.14800262451172 C-134.20700073242188,81.14800262451172 -134.20700073242188,-81.14800262451172 -134.20700073242188,-81.14800262451172 C-134.20700073242188,-84.84200286865234 -131.21299743652344,-87.83599853515625 -127.51899719238281,-87.83599853515625z"></path></g></g><g transform="matrix(1,0,0,1,249.0330047607422,260.70098876953125)" opacity="1" style="display: block;"><g opacity="1" transform="matrix(1,0,0,1,0,0)"><path fill="rgb(255,255,255)" fill-opacity="1" d=" M35.75199890136719,-6.1620001792907715 C40.47100067138672,-3.4089999198913574 40.47100067138672,3.4100000858306885 35.75199890136719,6.1620001792907715 C35.75199890136719,6.1620001792907715 -28.562999725341797,43.67900085449219 -28.562999725341797,43.67900085449219 C-33.319000244140625,46.45399856567383 -39.29100036621094,43.02299880981445 -39.29100036621094,37.516998291015625 C-39.29100036621094,37.516998291015625 -39.29100036621094,-37.516998291015625 -39.29100036621094,-37.516998291015625 C-39.29100036621094,-43.02299880981445 -33.319000244140625,-46.452999114990234 -28.562999725341797,-43.67900085449219 C-28.562999725341797,-43.67900085449219 35.75199890136719,-6.1620001792907715 35.75199890136719,-6.1620001792907715z"></path></g></g><g transform="matrix(1,0,0,1,0,0)" opacity="1" style="display: block;"><g opacity="1" transform="matrix(1,0,0,1,0,0.1893463134765625)"><g opacity="1" transform="matrix(1,0,0,1,117.0009994506836,96.62100219726562)"><path fill="rgb(136,125,255)" fill-opacity="1" d=" M-14.267999649047852,-14.267999649047852 C-14.267999649047852,-14.267999649047852 14.267999649047852,-14.267999649047852 14.267999649047852,-14.267999649047852 C14.267999649047852,-14.267999649047852 14.267999649047852,14.267999649047852 14.267999649047852,14.267999649047852 C14.267999649047852,14.267999649047852 -14.267999649047852,14.267999649047852 -14.267999649047852,14.267999649047852 C-14.267999649047852,14.267999649047852 -14.267999649047852,-14.267999649047852 -14.267999649047852,-14.267999649047852z"></path></g><g opacity="1" transform="matrix(1,0,0,1,117.0009994506836,96.62100219726562)"><path stroke="url(#__lottie_element_178)" stroke-linecap="butt" stroke-linejoin="miter" fill-opacity="0" stroke-miterlimit="4" stroke-opacity="1" stroke-width="0.892" d=" M-13.821999549865723,-13.821999549865723 C-13.821999549865723,-13.821999549865723 13.821999549865723,-13.821999549865723 13.821999549865723,-13.821999549865723 C13.821999549865723,-13.821999549865723 13.821999549865723,13.821999549865723 13.821999549865723,13.821999549865723 C13.821999549865723,13.821999549865723 -13.821999549865723,13.821999549865723 -13.821999549865723,13.821999549865723 C-13.821999549865723,13.821999549865723 -13.821999549865723,-13.821999549865723 -13.821999549865723,-13.821999549865723z"></path></g></g><g opacity="1" transform="matrix(1,0,0,1,0,-0.18935394287109375)"><g opacity="1" transform="matrix(1,0,0,1,398.7909851074219,126.94000244140625)"><path fill="rgb(136,125,255)" fill-opacity="1" d=" M-8.916999816894531,-8.916999816894531 C-8.916999816894531,-8.916999816894531 8.916999816894531,-8.916999816894531 8.916999816894531,-8.916999816894531 C8.916999816894531,-8.916999816894531 8.916999816894531,8.916999816894531 8.916999816894531,8.916999816894531 C8.916999816894531,8.916999816894531 -8.916999816894531,8.916999816894531 -8.916999816894531,8.916999816894531 C-8.916999816894531,8.916999816894531 -8.916999816894531,-8.916999816894531 -8.916999816894531,-8.916999816894531z"></path></g><g opacity="1" transform="matrix(1,0,0,1,398.7909851074219,126.94000244140625)"><path stroke="url(#__lottie_element_179)" stroke-linecap="butt" stroke-linejoin="miter" fill-opacity="0" stroke-miterlimit="4" stroke-opacity="1" stroke-width="0.892" d=" M-8.472000122070312,-8.472000122070312 C-8.472000122070312,-8.472000122070312 8.472000122070312,-8.472000122070312 8.472000122070312,-8.472000122070312 C8.472000122070312,-8.472000122070312 8.472000122070312,8.472000122070312 8.472000122070312,8.472000122070312 C8.472000122070312,8.472000122070312 -8.472000122070312,8.472000122070312 -8.472000122070312,8.472000122070312 C-8.472000122070312,8.472000122070312 -8.472000122070312,-8.472000122070312 -8.472000122070312,-8.472000122070312z"></path></g></g><g opacity="1" transform="matrix(1,0,0,1,0,0.1893310546875)"><g opacity="1" transform="matrix(1,0,0,1,399.6820068359375,370.385009765625)"><path fill="rgb(136,125,255)" fill-opacity="1" d=" M-9.809000015258789,-9.809000015258789 C-9.809000015258789,-9.809000015258789 9.809000015258789,-9.809000015258789 9.809000015258789,-9.809000015258789 C9.809000015258789,-9.809000015258789 9.809000015258789,9.809000015258789 9.809000015258789,9.809000015258789 C9.809000015258789,9.809000015258789 -9.809000015258789,9.809000015258789 -9.809000015258789,9.809000015258789 C-9.809000015258789,9.809000015258789 -9.809000015258789,-9.809000015258789 -9.809000015258789,-9.809000015258789z"></path></g><g opacity="1" transform="matrix(1,0,0,1,399.6820068359375,370.385009765625)"><path stroke="url(#__lottie_element_180)" stroke-linecap="butt" stroke-linejoin="miter" fill-opacity="0" stroke-miterlimit="4" stroke-opacity="1" stroke-width="0.892" d=" M-9.36299991607666,-9.36299991607666 C-9.36299991607666,-9.36299991607666 9.36299991607666,-9.36299991607666 9.36299991607666,-9.36299991607666 C9.36299991607666,-9.36299991607666 9.36299991607666,9.36299991607666 9.36299991607666,9.36299991607666 C9.36299991607666,9.36299991607666 -9.36299991607666,9.36299991607666 -9.36299991607666,9.36299991607666 C-9.36299991607666,9.36299991607666 -9.36299991607666,-9.36299991607666 -9.36299991607666,-9.36299991607666z"></path></g></g><g opacity="1" transform="matrix(1,0,0,1,0,-0.205108642578125)"><g opacity="1" transform="matrix(1,0,0,1,97.38300323486328,405.1629943847656)"><path fill="rgb(136,125,255)" fill-opacity="1" d=" M-12.484000205993652,-12.484000205993652 C-12.484000205993652,-12.484000205993652 12.484000205993652,-12.484000205993652 12.484000205993652,-12.484000205993652 C12.484000205993652,-12.484000205993652 12.484000205993652,12.484000205993652 12.484000205993652,12.484000205993652 C12.484000205993652,12.484000205993652 -12.484000205993652,12.484000205993652 -12.484000205993652,12.484000205993652 C-12.484000205993652,12.484000205993652 -12.484000205993652,-12.484000205993652 -12.484000205993652,-12.484000205993652z"></path></g><g opacity="1" transform="matrix(1,0,0,1,97.38300323486328,405.1629943847656)"><path stroke="url(#__lottie_element_181)" stroke-linecap="butt" stroke-linejoin="miter" fill-opacity="0" stroke-miterlimit="4" stroke-opacity="1" stroke-width="0.892" d=" M-12.038000106811523,-12.038000106811523 C-12.038000106811523,-12.038000106811523 12.038000106811523,-12.038000106811523 12.038000106811523,-12.038000106811523 C12.038000106811523,-12.038000106811523 12.038000106811523,12.038000106811523 12.038000106811523,12.038000106811523 C12.038000106811523,12.038000106811523 -12.038000106811523,12.038000106811523 -12.038000106811523,12.038000106811523 C-12.038000106811523,12.038000106811523 -12.038000106811523,-12.038000106811523 -12.038000106811523,-12.038000106811523z"></path></g></g></g></g></svg>