<svg xmlns="http://www.w3.org/2000/svg" xmlns:xlink="http://www.w3.org/1999/xlink" viewBox="0 0 500 500" width="500" height="500" preserveAspectRatio="xMidYMid meet" style="width: 100%; height: 100%; transform: translate3d(0px, 0px, 0px); content-visibility: visible;"><defs><clipPath id="__lottie_element_2"><rect width="500" height="500" x="0" y="0"></rect></clipPath><linearGradient id="__lottie_element_6" spreadMethod="pad" gradientUnits="userSpaceOnUse" x1="47.446998596191406" y1="-95.50399780273438" x2="47.446998596191406" y2="-118.5739974975586"><stop offset="0%" stop-color="rgb(255,255,255)" stop-opacity="0.30000001192092896"></stop><stop offset="50%" stop-color="rgb(255,255,255)" stop-opacity="0.2150000035762787"></stop><stop offset="100%" stop-color="rgb(255,255,255)" stop-opacity="0.12999999523162842"></stop></linearGradient><linearGradient id="__lottie_element_7" spreadMethod="pad" gradientUnits="userSpaceOnUse" x1="47.47600173950195" y1="15.843000411987305" x2="47.47600173950195" y2="1.4249999523162842"><stop offset="0%" stop-color="rgb(255,255,255)" stop-opacity="0.30000001192092896"></stop><stop offset="50%" stop-color="rgb(255,255,255)" stop-opacity="0.2150000035762787"></stop><stop offset="100%" stop-color="rgb(255,255,255)" stop-opacity="0.12999999523162842"></stop></linearGradient><linearGradient id="__lottie_element_8" spreadMethod="pad" gradientUnits="userSpaceOnUse" x1="47.104000091552734" y1="287.65399169921875" x2="47.104000091552734" y2="277.5610046386719"><stop offset="0%" stop-color="rgb(255,255,255)" stop-opacity="0.30000001192092896"></stop><stop offset="50%" stop-color="rgb(255,255,255)" stop-opacity="0.2150000035762787"></stop><stop offset="100%" stop-color="rgb(255,255,255)" stop-opacity="0.12999999523162842"></stop></linearGradient><linearGradient id="__lottie_element_9" spreadMethod="pad" gradientUnits="userSpaceOnUse" x1="46.70000076293945" y1="166.25999450683594" x2="46.70000076293945" y2="146.07400512695312"><stop offset="0%" stop-color="rgb(255,255,255)" stop-opacity="0.30000001192092896"></stop><stop offset="50%" stop-color="rgb(255,255,255)" stop-opacity="0.2150000035762787"></stop><stop offset="100%" stop-color="rgb(255,255,255)" stop-opacity="0.12999999523162842"></stop></linearGradient><linearGradient id="__lottie_element_13" spreadMethod="pad" gradientUnits="userSpaceOnUse" x1="46.91999816894531" y1="156.03799438476562" x2="46.91999816894531" y2="73.83000183105469"><stop offset="0%" stop-color="rgb(255,255,255)" stop-opacity="0.30000001192092896"></stop><stop offset="50%" stop-color="rgb(255,255,255)" stop-opacity="0.2150000035762787"></stop><stop offset="100%" stop-color="rgb(255,255,255)" stop-opacity="0.12999999523162842"></stop></linearGradient><linearGradient id="__lottie_element_17" spreadMethod="pad" gradientUnits="userSpaceOnUse" x1="46.92100143432617" y1="125.03700256347656" x2="46.92100143432617" y2="-20.19700050354004"><stop offset="0%" stop-color="rgb(255,255,255)" stop-opacity="0.30000001192092896"></stop><stop offset="50%" stop-color="rgb(255,255,255)" stop-opacity="0.2150000035762787"></stop><stop offset="100%" stop-color="rgb(255,255,255)" stop-opacity="0.12999999523162842"></stop></linearGradient><linearGradient id="__lottie_element_21" spreadMethod="pad" gradientUnits="userSpaceOnUse" x1="47.22800064086914" y1="162.9029998779297" x2="47.22800064086914" y2="-68.6500015258789"><stop offset="0%" stop-color="rgb(0,163,255)"></stop><stop offset="50%" stop-color="rgb(0,128,217)"></stop><stop offset="100%" stop-color="rgb(0,93,179)"></stop></linearGradient><linearGradient id="__lottie_element_25" spreadMethod="pad" gradientUnits="userSpaceOnUse" x1="-206.7969970703125" y1="-558.458984375" x2="-430.1289978027344" y2="-558.458984375"><stop offset="0%" stop-color="rgb(255,255,255)" stop-opacity="0.30000001192092896"></stop><stop offset="50%" stop-color="rgb(255,255,255)" stop-opacity="0.2150000035762787"></stop><stop offset="100%" stop-color="rgb(255,255,255)" stop-opacity="0.12999999523162842"></stop></linearGradient><linearGradient id="__lottie_element_29" spreadMethod="pad" gradientUnits="userSpaceOnUse" x1="46.665000915527344" y1="73.87899780273438" x2="46.665000915527344" y2="-1.4789999723434448"><stop offset="0%" stop-color="rgb(255,255,255)" stop-opacity="0.30000001192092896"></stop><stop offset="50%" stop-color="rgb(255,255,255)" stop-opacity="0.2150000035762787"></stop><stop offset="100%" stop-color="rgb(255,255,255)" stop-opacity="0.12999999523162842"></stop></linearGradient></defs><g clip-path="url(#__lottie_element_2)"><g transform="matrix(1,0,0,1,0,0)" opacity="1" style="display: block;"><g opacity="1" transform="matrix(1,0,0,1,322.3349914550781,220.87899780273438)"><path fill="rgb(125,204,255)" fill-opacity="1" d=" M-8.906000137329102,-37.67900085449219 C-8.906000137329102,-37.67900085449219 8.906000137329102,-37.67900085449219 8.906000137329102,-37.67900085449219 C8.906000137329102,-37.67900085449219 8.906000137329102,37.67900085449219 8.906000137329102,37.67900085449219 C8.906000137329102,37.67900085449219 -8.906000137329102,37.67900085449219 -8.906000137329102,37.67900085449219 C-8.906000137329102,37.67900085449219 -8.906000137329102,-37.67900085449219 -8.906000137329102,-37.67900085449219z"></path></g><g opacity="1" transform="matrix(1,0,0,1,322.3349914550781,220.87899780273438)"><path stroke="url(#__lottie_element_29)" stroke-linecap="butt" stroke-linejoin="miter" fill-opacity="0" stroke-miterlimit="4" stroke-opacity="1" stroke-width="0.721" d=" M-8.545000076293945,-37.31800079345703 C-8.545000076293945,-37.31800079345703 8.545000076293945,-37.31800079345703 8.545000076293945,-37.31800079345703 C8.545000076293945,-37.31800079345703 8.545000076293945,37.31800079345703 8.545000076293945,37.31800079345703 C8.545000076293945,37.31800079345703 -8.545000076293945,37.31800079345703 -8.545000076293945,37.31800079345703 C-8.545000076293945,37.31800079345703 -8.545000076293945,-37.31800079345703 -8.545000076293945,-37.31800079345703z"></path></g></g><g transform="matrix(1,0,0,1,0,0)" opacity="1" style="display: block;"><g opacity="1" transform="matrix(1,0,0,1,252.45899963378906,366.7969970703125)"><path fill="rgb(125,204,255)" fill-opacity="1" d=" M-111.66600036621094,20.552000045776367 C-111.66600036621094,20.552000045776367 -111.66600036621094,-20.552000045776367 -111.66600036621094,-20.552000045776367 C-111.66600036621094,-20.552000045776367 111.66600036621094,-20.552000045776367 111.66600036621094,-20.552000045776367 C111.66600036621094,-20.552000045776367 111.66600036621094,20.552000045776367 111.66600036621094,20.552000045776367 C111.66600036621094,20.552000045776367 -111.66600036621094,20.552000045776367 -111.66600036621094,20.552000045776367z"></path></g><g opacity="1" transform="matrix(1,0,0,1,252.45899963378906,366.7969970703125)"><path stroke="url(#__lottie_element_25)" stroke-linecap="butt" stroke-linejoin="miter" fill-opacity="0" stroke-miterlimit="4" stroke-opacity="1" stroke-width="0.721" d=" M-111.30500030517578,20.191999435424805 C-111.30500030517578,20.191999435424805 -111.30500030517578,-20.191999435424805 -111.30500030517578,-20.191999435424805 C-111.30500030517578,-20.191999435424805 111.30500030517578,-20.191999435424805 111.30500030517578,-20.191999435424805 C111.30500030517578,-20.191999435424805 111.30500030517578,20.191999435424805 111.30500030517578,20.191999435424805 C111.30500030517578,20.191999435424805 -111.30500030517578,20.191999435424805 -111.30500030517578,20.191999435424805z"></path></g></g><g transform="matrix(1,0,0,1,251.77200317382812,255.1320037841797)" opacity="1" style="display: block;"><g opacity="1" transform="matrix(1,0,0,1,0,0)"><path fill="url(#__lottie_element_21)" fill-opacity="1" d=" M19.1648006439209,-55.004398345947266 C34.6697998046875,-55.040401458740234 41.002437591552734,-57.612056732177734 48.81420135498047,-59.41579818725586 C59.43017578125,-61.76044464111328 67.02400207519531,-60.85100173950195 84.37899780273438,-59.597999572753906 C84.37899780273438,-59.597999572753906 84.37899780273438,-108.78800201416016 84.37899780273438,-108.78800201416016 C84.37899780273438,-112.70899963378906 81.10299682617188,-115.78500366210938 77.18000030517578,-115.7760009765625 C61.67599868774414,-115.73999786376953 54.51744842529297,-113.70763397216797 45.459598541259766,-111.77880096435547 C38.16117477416992,-110.17249298095703 31.268800735473633,-110.89939880371094 18.881799697875977,-110.91239929199219 C15.066800117492676,-110.91639709472656 11.965800285339355,-107.73639678955078 11.965800285339355,-103.92440032958984 C11.965800285339355,-103.92440032958984 11.965800285339355,-61.99340057373047 11.965800285339355,-61.99340057373047 C11.965800285339355,-58.0713996887207 15.241800308227539,-54.995399475097656 19.1648006439209,-55.004398345947266z M105.35800170898438,-17.006000518798828 C105.35800170898438,-17.006000518798828 35.42900085449219,-17.006000518798828 35.42900085449219,-17.006000518798828 C31.51300048828125,-17.006000518798828 28.437000274658203,-13.930999755859375 28.437000274658203,-10.017000198364258 C28.437000274658203,-10.017000198364258 28.437000274658203,24.926000595092773 28.437000274658203,24.926000595092773 C28.437000274658203,24.926000595092773 -34.49800109863281,24.926000595092773 -34.49800109863281,24.926000595092773 C-38.41400146484375,24.926000595092773 -41.49100112915039,27.999000549316406 -41.49100112915039,31.913999557495117 C-41.49100112915039,31.913999557495117 -41.49100112915039,66.85700225830078 -41.49100112915039,66.85700225830078 C-41.49100112915039,66.85700225830078 -105.35800170898438,66.85700225830078 -105.35800170898438,66.85700225830078 C-109.27400207519531,66.85700225830078 -112.35099792480469,69.93000030517578 -112.35099792480469,73.84500122070312 C-112.35099792480469,73.84500122070312 -112.35099792480469,108.78800201416016 -112.35099792480469,108.78800201416016 C-112.35099792480469,108.78800201416016 105.35800170898438,108.78800201416016 105.35800170898438,108.78800201416016 C109.27400207519531,108.78800201416016 112.35099792480469,111.86100006103516 112.35099792480469,115.7760009765625 C112.35099792480469,115.7760009765625 112.35099792480469,-10.017000198364258 112.35099792480469,-10.017000198364258 C112.35099792480469,-13.930999755859375 109.27400207519531,-17.006000518798828 105.35800170898438,-17.006000518798828z"></path></g></g><g transform="matrix(-0.7423593401908875,0.6158579587936401,-0.6158579587936401,-0.7423593401908875,512.9617309570312,336.21295166015625)" opacity="1" style="display: block;"><g opacity="1" transform="matrix(1,0,0,1,201.07899475097656,264.0379943847656)"><path fill="rgb(125,204,255)" fill-opacity="0.73" d=" M0,-72.61699676513672 C0,-72.61699676513672 62.88800048828125,-36.308998107910156 62.88800048828125,-36.308998107910156 C62.88800048828125,-36.308998107910156 62.88800048828125,36.30799865722656 62.88800048828125,36.30799865722656 C62.88800048828125,36.30799865722656 0,72.61699676513672 0,72.61699676513672 C0,72.61699676513672 -62.88800048828125,36.30799865722656 -62.88800048828125,36.30799865722656 C-62.88800048828125,36.30799865722656 -62.88800048828125,-36.308998107910156 -62.88800048828125,-36.308998107910156 C-62.88800048828125,-36.308998107910156 0,-72.61699676513672 0,-72.61699676513672z"></path></g><g opacity="1" transform="matrix(1,0,0,1,201.07899475097656,264.0369873046875)"><path stroke="url(#__lottie_element_17)" stroke-linecap="butt" stroke-linejoin="miter" fill-opacity="0" stroke-miterlimit="4" stroke-opacity="1" stroke-width="0.721" d=" M-62.52799987792969,-36.099998474121094 C-62.52799987792969,-36.099998474121094 0,-72.20099639892578 0,-72.20099639892578 C0,-72.20099639892578 62.52799987792969,-36.099998474121094 62.52799987792969,-36.099998474121094 C62.52799987792969,-36.099998474121094 62.52799987792969,36.099998474121094 62.52799987792969,36.099998474121094 C62.52799987792969,36.099998474121094 0,72.20099639892578 0,72.20099639892578 C0,72.20099639892578 -62.52799987792969,36.099998474121094 -62.52799987792969,36.099998474121094 C-62.52799987792969,36.099998474121094 -62.52799987792969,-36.099998474121094 -62.52799987792969,-36.099998474121094z"></path></g></g><g transform="matrix(0.9454787969589233,0,0,0.9454787969589233,10.963119506835938,14.395614624023438)" opacity="1" style="display: block;"><g opacity="1" transform="matrix(1,0,0,1,201.0800018310547,264.0369873046875)"><path fill="rgb(185,227,255)" fill-opacity="0.66" d=" M0,-41.104000091552734 C0,-41.104000091552734 35.59700012207031,-20.552000045776367 35.59700012207031,-20.552000045776367 C35.59700012207031,-20.552000045776367 35.59700012207031,20.552000045776367 35.59700012207031,20.552000045776367 C35.59700012207031,20.552000045776367 0,41.104000091552734 0,41.104000091552734 C0,41.104000091552734 -35.59700012207031,20.552000045776367 -35.59700012207031,20.552000045776367 C-35.59700012207031,20.552000045776367 -35.59700012207031,-20.552000045776367 -35.59700012207031,-20.552000045776367 C-35.59700012207031,-20.552000045776367 0,-41.104000091552734 0,-41.104000091552734z"></path></g><g opacity="1" transform="matrix(1,0,0,1,201.0800018310547,264.0379943847656)"><path stroke="url(#__lottie_element_13)" stroke-linecap="butt" stroke-linejoin="miter" fill-opacity="0" stroke-miterlimit="4" stroke-opacity="1" stroke-width="0.721" d=" M-35.23699951171875,-20.3439998626709 C-35.23699951171875,-20.3439998626709 0,-40.6879997253418 0,-40.6879997253418 C0,-40.6879997253418 35.23699951171875,-20.3439998626709 35.23699951171875,-20.3439998626709 C35.23699951171875,-20.3439998626709 35.23699951171875,20.3439998626709 35.23699951171875,20.3439998626709 C35.23699951171875,20.3439998626709 0,40.6879997253418 0,40.6879997253418 C0,40.6879997253418 -35.23699951171875,20.3439998626709 -35.23699951171875,20.3439998626709 C-35.23699951171875,20.3439998626709 -35.23699951171875,-20.3439998626709 -35.23699951171875,-20.3439998626709z"></path></g></g><g transform="matrix(1,0,0,1,0,0)" opacity="1" style="display: block;"><g opacity="1" transform="matrix(1,0,0,1,-14.6123046875,-0.5528564453125)"><g opacity="1" transform="matrix(1,0,0,1,200.55299377441406,123.49600219726562)"><path fill="rgb(125,204,255)" fill-opacity="1" d=" M-11.53499984741211,-11.53499984741211 C-11.53499984741211,-11.53499984741211 11.53499984741211,-11.53499984741211 11.53499984741211,-11.53499984741211 C11.53499984741211,-11.53499984741211 11.53499984741211,11.53499984741211 11.53499984741211,11.53499984741211 C11.53499984741211,11.53499984741211 -11.53499984741211,11.53499984741211 -11.53499984741211,11.53499984741211 C-11.53499984741211,11.53499984741211 -11.53499984741211,-11.53499984741211 -11.53499984741211,-11.53499984741211z"></path></g><g opacity="1" transform="matrix(1,0,0,1,200.55299377441406,123.49600219726562)"><path stroke="url(#__lottie_element_6)" stroke-linecap="butt" stroke-linejoin="miter" fill-opacity="0" stroke-miterlimit="4" stroke-opacity="1" stroke-width="0.721" d=" M-11.173999786376953,-11.173999786376953 C-11.173999786376953,-11.173999786376953 11.173999786376953,-11.173999786376953 11.173999786376953,-11.173999786376953 C11.173999786376953,-11.173999786376953 11.173999786376953,11.173999786376953 11.173999786376953,11.173999786376953 C11.173999786376953,11.173999786376953 -11.173999786376953,11.173999786376953 -11.173999786376953,11.173999786376953 C-11.173999786376953,11.173999786376953 -11.173999786376953,-11.173999786376953 -11.173999786376953,-11.173999786376953z"></path></g></g><g opacity="1" transform="matrix(1,0,0,1,-13.884552001953125,-14.382308959960938)"><g opacity="1" transform="matrix(1,0,0,1,399.52398681640625,176.84300231933594)"><path fill="rgb(125,204,255)" fill-opacity="1" d=" M-7.209000110626221,-7.209000110626221 C-7.209000110626221,-7.209000110626221 7.209000110626221,-7.209000110626221 7.209000110626221,-7.209000110626221 C7.209000110626221,-7.209000110626221 7.209000110626221,7.209000110626221 7.209000110626221,7.209000110626221 C7.209000110626221,7.209000110626221 -7.209000110626221,7.209000110626221 -7.209000110626221,7.209000110626221 C-7.209000110626221,7.209000110626221 -7.209000110626221,-7.209000110626221 -7.209000110626221,-7.209000110626221z"></path></g><g opacity="1" transform="matrix(1,0,0,1,399.52398681640625,176.84300231933594)"><path stroke="url(#__lottie_element_7)" stroke-linecap="butt" stroke-linejoin="miter" fill-opacity="0" stroke-miterlimit="4" stroke-opacity="1" stroke-width="0.721" d=" M-6.848999977111816,-6.848999977111816 C-6.848999977111816,-6.848999977111816 6.848999977111816,-6.848999977111816 6.848999977111816,-6.848999977111816 C6.848999977111816,-6.848999977111816 6.848999977111816,6.848999977111816 6.848999977111816,6.848999977111816 C6.848999977111816,6.848999977111816 -6.848999977111816,6.848999977111816 -6.848999977111816,6.848999977111816 C-6.848999977111816,6.848999977111816 -6.848999977111816,-6.848999977111816 -6.848999977111816,-6.848999977111816z"></path></g></g><g opacity="1" transform="matrix(1,0,0,1,-10.569793701171875,-27.794708251953125)"><g opacity="1" transform="matrix(1,0,0,1,408.89599609375,311.65399169921875)"><path fill="rgb(125,204,255)" fill-opacity="1" d=" M-5.046000003814697,-5.046000003814697 C-5.046000003814697,-5.046000003814697 5.046000003814697,-5.046000003814697 5.046000003814697,-5.046000003814697 C5.046000003814697,-5.046000003814697 5.046000003814697,5.046000003814697 5.046000003814697,5.046000003814697 C5.046000003814697,5.046000003814697 -5.046000003814697,5.046000003814697 -5.046000003814697,5.046000003814697 C-5.046000003814697,5.046000003814697 -5.046000003814697,-5.046000003814697 -5.046000003814697,-5.046000003814697z"></path></g><g opacity="1" transform="matrix(1,0,0,1,408.89599609375,311.65399169921875)"><path stroke="url(#__lottie_element_8)" stroke-linecap="butt" stroke-linejoin="miter" fill-opacity="0" stroke-miterlimit="4" stroke-opacity="1" stroke-width="0.721" d=" M-4.685999870300293,-4.685999870300293 C-4.685999870300293,-4.685999870300293 4.685999870300293,-4.685999870300293 4.685999870300293,-4.685999870300293 C4.685999870300293,-4.685999870300293 4.685999870300293,4.685999870300293 4.685999870300293,4.685999870300293 C4.685999870300293,4.685999870300293 -4.685999870300293,4.685999870300293 -4.685999870300293,4.685999870300293 C-4.685999870300293,4.685999870300293 -4.685999870300293,-4.685999870300293 -4.685999870300293,-4.685999870300293z"></path></g></g><g opacity="1" transform="matrix(1,0,0,1,1.699676513671875,-2.19635009765625)"><g opacity="1" transform="matrix(1,0,0,1,95.30000305175781,253.25999450683594)"><path fill="rgb(125,204,255)" fill-opacity="1" d=" M-10.093000411987305,-10.093000411987305 C-10.093000411987305,-10.093000411987305 10.093000411987305,-10.093000411987305 10.093000411987305,-10.093000411987305 C10.093000411987305,-10.093000411987305 10.093000411987305,10.093000411987305 10.093000411987305,10.093000411987305 C10.093000411987305,10.093000411987305 -10.093000411987305,10.093000411987305 -10.093000411987305,10.093000411987305 C-10.093000411987305,10.093000411987305 -10.093000411987305,-10.093000411987305 -10.093000411987305,-10.093000411987305z"></path></g><g opacity="1" transform="matrix(1,0,0,1,95.30000305175781,253.25999450683594)"><path stroke="url(#__lottie_element_9)" stroke-linecap="butt" stroke-linejoin="miter" fill-opacity="0" stroke-miterlimit="4" stroke-opacity="1" stroke-width="0.721" d=" M-9.732000350952148,-9.732000350952148 C-9.732000350952148,-9.732000350952148 9.732000350952148,-9.732000350952148 9.732000350952148,-9.732000350952148 C9.732000350952148,-9.732000350952148 9.732000350952148,9.732000350952148 9.732000350952148,9.732000350952148 C9.732000350952148,9.732000350952148 -9.732000350952148,9.732000350952148 -9.732000350952148,9.732000350952148 C-9.732000350952148,9.732000350952148 -9.732000350952148,-9.732000350952148 -9.732000350952148,-9.732000350952148z"></path></g></g></g></g></svg>